<?xml version="1.0" encoding="UTF-8"?>
<svg id="Layer_1" data-name="Layer 1" xmlns="http://www.w3.org/2000/svg" viewBox="0 0 64 64">
  <defs>
    <style>
      .cls-1 {
        fill: #1f180d;
      }

      .cls-2, .cls-3 {
        fill: #e5ccc2;
      }

      .cls-3 {
        opacity: .47;
      }

      .cls-4 {
        fill: #201510;
      }

      .cls-5 {
        fill: #bf792c;
      }

      .cls-6 {
        fill: #332722;
      }

      .cls-7 {
        fill: #9c6427;
      }
    </style>
  </defs>
  <path class="cls-7" d="m39.24,29.93l3.17,6.83s.95,5.97.55,9.27c0,0,.32,3.14,1.74,4.63h5.47s-.4-2.98-2.46-2.98l-.39-17.04s-.32-8.56-4.2-8.17-3.88,7.46-3.88,7.46Z"/>
  <path class="cls-7" d="m24.91,29.66c-2.98,7.72-8,12.4-8,12.4-.15,1.23.15,4.04.15,4.04,1.89.22,1.75,2.38,1.75,2.38h-4.29c-1.46-2.09-.73-8.65-.73-8.65,0,0,2.33-1.41,2.47-3.82.16-2.68,2.08-8.15,8.66-6.35Z"/>
  <path class="cls-5" d="m44.89,15.05s-3.17,5.11-8.64,6.68c-5.47,1.57-19.58-.47-19.58-.47,0,0-4.91,1.34-5.79,6.76-.87,5.42.79,9.82,0,12.33-.79,2.51-2.69,4.16-2.69,4.16,0,0-.79,7.15.79,9.43h4.68s.16-2.36-1.9-2.59c0,0-.32-3.06-.16-4.4,0,0,6.23-4.9,9.48-13.31,0,0,16.36,4.43,20.32,4.2,3.96-.24,7.29-1.89,7.37-13.27l-3.88-9.5Z"/>
  <path class="cls-1" d="m48.35,23.52l-3.46-8.47s-3.17,5.11-8.64,6.68c-4.7,1.35-15.8.03-18.81-.37-.77-.51-1.72-1.54-1.82-3.54-.17-3.31,2.32-5.23,2.42-5.31.45-.33.54-.96.21-1.41-.33-.45-.96-.54-1.41-.21-.14.1-3.46,2.62-3.23,7.03.09,1.7,1.15,4.23,1,4.32,4.64,2.52,8.25,6.36,10.3,12.4,0,0,2.87.87,7.19,1.7,4.24,0,8.6-.83,11.45-3.65,2.22-2.2,5.27-6.17,4.8-9.17Z"/>
  <path class="cls-5" d="m39.61,36.56l1.4,3.31s.95,5.97.55,9.27c0,0,.32,3.14,1.74,4.63h5.47s-.4-2.98-2.46-2.98l-.39-17.04s-.32-8.56-4.2-8.17c-3.88.39-2.11,10.98-2.11,10.98Z"/>
  <path class="cls-7" d="m44.29,15.2c-.85,2.13-2.49,3.74-4.65,4.99,4.47,1.65,3.06,3.38,3.06,3.38,0,0-3.09,1.49-3.88,4.03s.79,8.95.79,8.95l.24-3.95,1.11,3.33.48-3.57.39,1.66,1.59-4.2.87,2.3.48-3.65,1.11,3.8s2.51-.55,2.9-5.86c.4-5.32-4.49-11.22-4.49-11.22Z"/>
  <g>
    <polygon class="cls-1" points="43.61 13.65 44.57 13.92 46.03 11.57 45.1 10.48 43.61 13.65"/>
    <polygon class="cls-1" points="53.66 14.15 52.7 14.43 51.23 12.08 52.16 10.99 53.66 14.15"/>
    <path class="cls-5" d="m54.68,24.5c.42-.72.67-1.45.59-2.05-.24-1.91-1.86-4.68-1.86-4.68,0,0,.63-.71.54-1.7-.09-.99-1.08-1.55-1.08-1.55-.33-3.97-3.1-3.72-6.21-3.72s-2.74,5.36-3.11,6.02c0,0,.48,2.39,2.45,4.12.07.42.31,1,.66,1.65h0s2.12,4.05,3.31,5.36l-.2-.83s.71.79,1.47,1.51v-.59l.36.59s1-.91,1.43-1.51v.71s1.03-1.87,1.66-3.31Z"/>
    <path class="cls-2" d="m48.63,15.06s.91,2.06.32,3.09c-.59,1.03-1.18,1.89-1.32,3.15-.14,1.27,1.33,4.56,1.33,4.56,0,0-2.63-1.7-2.66-4.82s2.25-2.52,2.33-5.97Z"/>
    <path class="cls-2" d="m51.23,15.05s.91,1.1,2.18,2.72c1.27,1.62,1.86,4.68,1.86,4.68,0,0-1.28-3.15-2.67-4.36-1.4-1.21-1.37-3.04-1.37-3.04Z"/>
    <path class="cls-6" d="m51.59,24.39c.83,0,1.82-1.18,1.82-1.94s-3.65-.84-3.65,0,.95,1.94,1.82,1.94Z"/>
    <path class="cls-4" d="m51.86,23.12c0-.49,1.34-.72,1.37-.02.11-.23.18-.45.18-.65,0-.77-3.65-.84-3.65,0,0,.21.06.44.17.67,0-.72,1.37-.49,1.37,0v1.23c.09.02.19.04.28.04s.18-.01.27-.04v-1.23Z"/>
    <path class="cls-4" d="m47.63,16.33c0,.26-.21.47-.48.47s-.48-.21-.48-.47.21-.47.48-.47.48.21.48.47Z"/>
    <ellipse class="cls-4" cx="53.22" cy="16.45" rx=".48" ry=".47"/>
    <path class="cls-5" d="m45.95,10.89s-.19-.4-.39-.76-4.06.83-4.26,1.77.9,3.27,1.49,3.73c.58.46,1.44-3.8,1.97-4.31.53-.5.83-.28.83-.28l.36-.16Z"/>
    <path class="cls-5" d="m51.32,11.4s.19-.89.39-1.25,4.06.83,4.26,1.77-.9,3.27-1.49,3.73c-.58.46-1.44-3.31-1.97-3.82-.53-.5-.92-.18-.92-.18l-.27-.26Z"/>
  </g>
  <path class="cls-3" d="m45.42,15.7s.36-1.09,1.55-1.28,1.66.64,1.66.64l-3.21.64Z"/>
  <path class="cls-3" d="m53.85,15.7s-.29-1.09-1.26-1.28c-.97-.19-1.36.64-1.36.64l2.61.64Z"/>
</svg>