<?xml version="1.0" encoding="UTF-8"?>
<svg id="Layer_1" data-name="Layer 1" xmlns="http://www.w3.org/2000/svg" viewBox="0 0 64 64">
  <defs>
    <style>
      .cls-1 {
        fill: #2b120d;
      }

      .cls-2 {
        fill: #a19996;
      }

      .cls-3 {
        fill: #e0d8d3;
      }

      .cls-4 {
        fill: #12090a;
      }

      .cls-5 {
        fill: #41201c;
      }

      .cls-6 {
        fill: #ad4424;
      }

      .cls-7 {
        fill: #81351a;
      }
    </style>
  </defs>
  <path class="cls-3" d="m45.93,26.63s2.36-.36,2.43-2.52c.13-4.25-1.1-9.69-5.46-14.34-.25-.27.11-.72.39-.48,2.19,1.86,5.33,4.92,6.54,8.61,2.39,7.25,1.13,10.25-.76,12.23l-3.15-3.51Z"/>
  <path class="cls-1" d="m49.84,17.9c-.1-.32-.23-.63-.36-.94-.05.07-.49,1.38-2.01.61.72,2.3.95,4.55.89,6.54-.07,2.16-2.43,2.52-2.43,2.52l3.15,3.51c1.89-1.98,3.15-4.98.76-12.23Z"/>
  <path class="cls-2" d="m41.43,35.89c-.27.04.54,3.33,3.24,5.94,2.7,2.61,4.41,3.15,4.41,3.15l.54,5.4s-1.8-.09-2.16,1.8h4.23s0-7.64,0-7.64c0,0-3.51-9.71-10.25-8.63Z"/>
  <path class="cls-2" d="m15.81,35.81s2.23,3.95,2.32,7.82c.09,3.87,0,7.01,0,7.01,0,0-2.19-.36-2.26,1.53h4.69s1.98-16.19,1.98-16.19c0,0-1.53-3.69-4.05-3.24-2.52.45-2.67,3.06-2.67,3.06Z"/>
  <path class="cls-3" d="m12.83,25.64s.36,4.68,1.98,8.18c1.62,3.51,3.69,6.47,5.58,7.82,1.89,1.35,10.52-.54,13.13-1.62,2.61-1.08,8-2.61,9.89-2.52,0,0,3.15,4.59,6.3,7.1,3.15,2.52,3.78,2.97,3.78,2.97l.63,5.4s-2.25-.45-2.43,1.8h4.32s0-8.54,0-8.54c0,0-2.88-2.79-2.7-6.03.18-3.24,1.26-8.18-2.16-11.33-3.42-3.15-4.14-2.79-4.14-2.79,0,0-14.12.9-17.81.81-3.69-.09-6.56-1.08-8.27-2.79s-8.09,1.53-8.09,1.53Z"/>
  <path class="cls-3" d="m18.66,40.03s2.17,2.34,2.26,6.2c.09,3.87,0,7.01,0,7.01,0,0-2.19-.36-2.26,1.53h4.69s1.98-16.19,1.98-16.19c0,0-2.61-2.34-5.13-1.89-2.52.45-1.55,3.33-1.55,3.33Z"/>
  <path class="cls-6" d="m18.68,32.52c.27,3.51,4.32,4.86,7.42,4.18,4.89-.98,5.49-5.64,4.69-9.81-.64.01-1.18.01-1.59,0-3.69-.09-6.56-1.08-8.27-2.79-.47-.47-1.29-.57-2.24-.46,1.09,2.74-.24,6,0,8.87Z"/>
  <path class="cls-6" d="m46.2,29.68c1.08,2.56.94,4.99,1.89,7.42.67,1.89,3.78,2.02,5.26.54.06-.07.12-.15.18-.22.21-2.88.15-6.21-2.38-8.54-3.42-3.15-4.14-2.79-4.14-2.79,0,0-.2.01-.55.03.09,1.19-.69,2.38-.26,3.56Z"/>
  <path class="cls-6" d="m36.22,34.94c2.43,1.48,5.8.54,7.82-1.75.94-1.21-.4-2.43-.4-3.51.07-1.14.87-2.34,1.26-3.47-2.65.16-7.3.43-11,.58-1.44,2.74-.29,6.6,2.33,8.15Z"/>
  <path class="cls-1" d="m30.79,26.89c-.64.01-1.18.01-1.59,0-3.44-.08-6.18-.95-7.92-2.46-.12,1.02.1,2,.9,2.68,2.43,2.02,6.07,3.1,6.34,6.74.05.77-.13,1.51-.5,2.15,3.11-1.69,3.44-5.58,2.76-9.12Z"/>
  <path class="cls-1" d="m49.97,31.03c.83-.18,1.55-.56,2.12-1.08-.27-.38-.59-.74-.95-1.08-3.42-3.15-4.14-2.79-4.14-2.79,0,0-.2.01-.55.03.09,1.19-.69,2.38-.26,3.56.02.04.03.07.04.11.87,1.01,2.38,1.45,3.73,1.24Z"/>
  <path class="cls-1" d="m37.97,35.35c1.35-.27,2.97-.4,3.37-2.02.27-1.21-1.21-2.29-.67-3.37.6-1.2,2.01-1.95,3.42-1.88.27-.63.6-1.25.81-1.86-2.65.16-7.3.43-11,.58-1.44,2.74-.29,6.6,2.33,8.15.3.19.62.33.95.45.27,0,.54-.01.8-.04Z"/>
  <g>
    <path class="cls-7" d="m11.48,18.8s-2.43,1.89-3.24,3.15c-.81,1.26.63,3.51.63,3.51,0,0,.72,2.32-.27,3.1,0,0,1.53-.13,2.88-2.2,1.35-2.07,0-7.55,0-7.55Z"/>
    <path class="cls-6" d="m21.2,25.19s-.94-6.83-2.72-7.73-5.73-.36-6.99.54-1.44,3.33-.63,5.22c0,0-1.08,1.62-.9,3.15s.99,1.71,2.43,1.17c0,0,1.17,1.26,2.79.99,1.62-.27,4.5-4.9,4.5-4.9l1.53,1.58Z"/>
    <path class="cls-7" d="m18.48,17.45s3.98,2.54,4.97,5.32c.99,2.78-1.28,8.77-2.48,9.43,0,0-2.52-1.32-3.18-3.24-.66-1.91,1.16-5.13,1.39-6.83.23-1.71.82-3.24-.69-4.68Z"/>
    <path class="cls-3" d="m17.18,24.19c-.4-.94-2.01-1.38-2.55-2.05-.54-.84.67-4.69,1.58-5.14-1.07-.03-2.23.11-3.18.36.69,3.15-2.18,5.84-2.18,5.85,0,0-1.08,1.62-.9,3.15s.99,1.71,2.43,1.17c0,0,1.17,1.26,2.79.99.57-.09,1.29-.73,1.99-1.5.48-.85.47-1.79.03-2.82Z"/>
    <circle class="cls-1" cx="16.38" cy="21.34" r=".57"/>
    <path class="cls-1" d="m11.64,21.34c0,.32-.26.57-.57.57s-.57-.26-.57-.57c0-.32.26-.57.57-.57s.57.26.57.57Z"/>
    <path class="cls-1" d="m15.22,20.42s.59-.8,1.47-.5c.65.22.83,1.26.83,1.26,0,0-.71-1.13-2.3-.75Z"/>
    <path class="cls-1" d="m11.99,20.42s-.55-.65-1.3-.43c-.49.15-.38,1.18-.38,1.18,0,0,.52-1.13,1.68-.75Z"/>
    <path class="cls-4" d="m12.45,23.01c-.85,0-1.66.11-1.66.43s1.14,1.77,1.14,1.77l.46,2.32.2.18.09-2.35s.97-1,1.21-1.36.24-.99-1.44-.99Z"/>
    <path class="cls-5" d="m12.08,23.61c-.25-.07-.94-.06-.94.16s.5.38.5.38c.01.08.06.47.11.82.11.14.18.23.18.23l.04.21c.12-.68.29-1.76.12-1.81Z"/>
    <path class="cls-5" d="m12.91,24.15s.5-.16.5-.38c0-.22-.68-.23-.94-.16-.21.06.09,1.68.19,2.19l.02-.44s.04-.04.1-.1c.05-.39.12-1,.14-1.1Z"/>
  </g>
</svg>