<?xml version="1.0" encoding="UTF-8"?>
<svg xmlns="http://www.w3.org/2000/svg" viewBox="0 0 64 64">
  <defs>
    <style>
      .cls-1 {
        fill: #141313;
      }

      .cls-2 {
        fill: #2e322b;
      }

      .cls-3, .cls-4 {
        fill: #eae0d4;
      }

      .cls-3, .cls-5 {
        mix-blend-mode: multiply;
      }

      .cls-6 {
        isolation: isolate;
      }

      .cls-7 {
        fill: #e3d4c3;
      }

      .cls-8 {
        fill: #bea598;
      }

      .cls-9 {
        fill: #14192c;
      }

      .cls-10 {
        fill: #d1864a;
      }

      .cls-5 {
        fill: #e2d2c0;
        opacity: .55;
      }

      .cls-11 {
        fill: #b19182;
      }

      .cls-12 {
        fill: #231417;
      }

      .cls-13 {
        fill: #dddbda;
      }

      .cls-14 {
        fill: #ccb8a5;
      }

      .cls-15 {
        fill: #f1ebe3;
      }
    </style>
  </defs>
  <g class="cls-6">
    <g id="Layer_1" data-name="Layer 1">
      <g>
        <path class="cls-14" d="m52.46,43.8c-4.4-2.81-3.19-7.97-3.19-7.97.13-1.46.13-2.74.03-3.87h-10.85v1.84c1.74,4.9,5.62,6.84,7.05,7.4.42.17.8.42,1.12.75,3.29,3.33,3.4,6.27,3.48,7.63.02.35-.22.64-.56.72-1.08.25-2,.96-1.94,1.93.08,1.13,3.57.84,5.7.59,2.13-.25-.84-9.01-.84-9.01Z"/>
        <path class="cls-14" d="m23.59,30.91s-2.73-2.05-4.25-1.22c-1.52.84-2.75,2.29-1.76,7.66.99,5.37,1.68,11.87.85,12.62-.84.75-2.96.19-2.91,1.57.05,1.38.76,1.74,2.84,1.74s2.76-1.92,3.01-2.94c.25-1.02,1.33-2.82,1.97-7.68.63-4.86,2.16-10.15.26-11.77Z"/>
        <path class="cls-4" d="m54.99,45.72c-.17-.55-.49-1.05-.93-1.43-3.3-2.95-2.56-7.46-2.56-7.46.84-9.64-3.8-11.47-5.32-12.99-1.52-1.52-11.24.84-13.82.39-2.58-.45-8.96-3.65-10.48-5.48-.41-.49-.96-1.17-1.53-1.9-2.44,2.45-6.88,4.72-9.64,4.12.18,1.55.6,2.97,1.05,3.86,1.57,3.11-.13,4.94,3.74,9.1,3.87,4.16,15.11,6.92,19.44,4.31,2.9-1.75,2.79-2.74,4.41-3.2.71-.2,1.44.17,1.75.84,2.31,5.12,6.68,6.05,6.68,6.05,3.86,3.56,4.47,7.23,4.55,8.66.02.34-.21.64-.55.72-1.08.25-2.02.96-1.96,1.93.08,1.13,3.14.84,5.27.59,1.7-.2.58-5.83-.11-8.09Z"/>
        <path class="cls-4" d="m25.01,31.66s-2.73-2.05-4.25-1.22c-1.52.84-1.9,3.3-.91,8.67.99,5.37.84,10.85,0,11.61-.84.75-2.96.19-2.91,1.57.05,1.38.76,1.74,2.84,1.74s2.76-1.92,3.01-2.94c.25-1.02,1.33-2.82,1.97-7.68.63-4.86,2.16-10.15.26-11.77Z"/>
        <path class="cls-10" d="m54.07,44.29c-3.3-2.95-2.56-7.46-2.56-7.46.84-9.64-3.8-11.47-5.32-12.99-1.52-1.52-11.24.84-13.82.39-2.58-.45-8.96-3.65-10.48-5.48-.41-.49-1.8-2.17-2.38-2.89-1.69,1.7-3.5,4.3-5.89,4.93.81.2,1.66.33,2.44.64.3.12.58.26.83.41,0,0,0,0,0,0,1.58-.4,4.46-.74,4.46,1.72s-2.89,3.35-4.55,4.57c-1.54,1.13,2.32,2.12,2.79,2.65.13.14.24.29.34.44-.8,1.25-.87,3.67-.1,7.89.17.93.3,1.86.41,2.76.75-.47,1.43-1.18,2-2.14.57-.97.92-1.98,1.72-2.8.59-.6,1.13-1.04,1.87-.84,1.38.8,4.07,1.41,5.82,1.37,4.14-.09,8.32-4.24,8.99-4.05,1.94.55,3.3,3.86,7.07,4.8,1.76.44,4.13,6.82,5.73,6.71.45-.03.87.04,1.27.17-.17-.31-.39-.59-.66-.83Z"/>
        <path class="cls-7" d="m49.37,26.77s.98-3.72-2.31-4.08-1.06,4.33,1.74,3.4c0,0-.27,4.85-6.9,2.62-7.33-2.46-4.35-11.45,1.42-11.88,5.77-.43,10.57,3.43,9.87,7.95-.53,3.47-2.64,3.95-2.64,3.95,0,0-.92-1.66-1.17-1.97Z"/>
        <path class="cls-5" d="m21.89,18.75c-.41-.49-1.35-1.61-1.93-2.34-2.44,2.45-6.48,5.15-9.25,4.55.18,1.55.6,2.97,1.05,3.86.21.41.35.8.47,1.17.7.43,1.42.73,2.11.73.67-.24,1.31-.55,1.9-1,2.1-1.58,3.96-3.78,5.48-5.9.17-.23.34-.48.51-.71-.14-.13-.26-.25-.36-.37Z"/>
        <path class="cls-10" d="m44.51,16.82c-.71.46-1.34,1.15-1.87,2.12-.93,1.73-.37,3.73,1.3,4.84.48.32,1.15.79,1.82,1.04-.65-1.07-.48-2.32,1.29-2.13,3.29.35,2.31,4.08,2.31,4.08.25.31,1.17,1.97,1.17,1.97,0,0,2.11-.48,2.64-3.95.64-4.21-3.45-7.83-8.67-7.97Z"/>
        <path class="cls-3" d="m44.93,19.91c-1.21.37-2.45,1.04-2.88,2.31-.52,1.51,0,3.27,1.23,4.29.01.01.03.02.04.03,1.5,1.23,4.28,1.25,5.48-.44-2.8.93-5.03-3.76-1.74-3.4,3.29.35,2.31,4.08,2.31,4.08.07.09.19.27.33.5.96-1.36,1.36-3.09.58-4.75-.84-1.77-3.27-3.24-5.34-2.61Z"/>
        <g>
          <g>
            <path class="cls-10" d="m15.64,13.05s.89-.58,1.26-1.39.92-1.62,2.09-1.7c1.17-.08,1.19,4.2.22,5.37,0,0-2.77-2.28-3.57-2.28Z"/>
            <path class="cls-8" d="m19.19,13.5c.07-.3.17-3.36-.52-2.94-1.2.73-1.55,1.76-2.46,2.68.9.44,1.94,1.37,2.44,1.77.07-.52.4-.9.54-1.51Z"/>
            <path class="cls-11" d="m18.34,12.45c-.07-1.41-1.02.24-1.44.66-.11.11-.21.21-.32.32.58.35,1.19.84,1.64,1.21-.02-.7.16-1.45.12-2.2Z"/>
          </g>
          <g>
            <path class="cls-10" d="m12.99,12.82s-.94-.52-1.38-1.3c-.44-.78-1.07-1.55-2.25-1.56-1.18,0-.79,4.26.29,5.37,0,0,2.55-2.46,3.34-2.51Z"/>
            <path class="cls-8" d="m9.49,13.5c-.1-.3-.49-3.34.24-2.96,1.27.65,1.71,1.65,2.7,2.51-.85.5-1.8,1.49-2.26,1.93-.12-.52-.48-.87-.69-1.47Z"/>
            <path class="cls-11" d="m10.24,12.4c-.06-1.41,1.04.18,1.5.57.12.1.23.2.35.3-.55.39-1.1.91-1.52,1.32-.05-.7-.3-1.44-.33-2.18Z"/>
          </g>
          <path class="cls-4" d="m19.53,21.61c.28-.82.58-1.67.5-2.49-.12-1.19-.99-1.58-1.51-2.52-.31-.57-.64-1.54-1.39-1.69-.36-.02-.69-.11-1.01-.26-.11-.06-.21-.13-.31-.19-.37.08-.75.16-1.09.25-.46.13-.86.08-1.23-.06-.91.27-1.8.56-2.71.8-.41.55-.79,1.06-.89,1.19-1.06,1.3-1.23,2.68-1.26,4.31,0,0,0,0,0,.02.76,1.26,2.33,2.42,5.46,3.11,0,0,3.46-.36,5.43-2.47Z"/>
          <path class="cls-10" d="m9.19,18.59c.36-.62.78-.69,1.33-1.07.74-.5.61-1.39,1.21-2.01.38-.39.99-.44,1.45-.19.38.21,1.18.73,1.92.35.6-.31.96-.47,1.6-.27.59.18.83.66,1.02,1.23.25.76,1.2,1.2,1.52,1.5.96.9.56,2.37.14,3.64.68-.67,1.41-1.52,1.41-2.64,0-3.11-2.4-5.77-4.21-6.47-.12-.05-.93-.27-1.33-.23-.6.07-1.21.04-1.8-.11-.3-.08-.63.1-.88.09-.64-.04-4.58,3.2-4.58,6.46,0,1.17.52,2.43,1.9,3.48-.74-1.1-1.25-2.81-.71-3.75Z"/>
          <g>
            <path class="cls-15" d="m14.95,18.37c-.36-.2-.81-.18-1.17.03-.32.18-.72.46-.95.8-.42.6-1.97,1.85-1.46,3.17.51,1.32,2.61.15,2.87.2.26.05,2.25,1.01,2.82-.22.38-.82-.24-1.89-1.06-2.99-.26-.35-.64-.75-1.05-.99Z"/>
            <path class="cls-15" d="m14.88,21.99c-.41-.09-.71-.19-1.11-.05-.29.1-.63.11-.95.03-.02.06-.04.12-.04.19,0,.46.64.84,1.43.84s1.43-.38,1.43-.84c0-.03,0-.05-.01-.07-.25-.01-.51-.04-.75-.09Z"/>
            <path class="cls-9" d="m11.82,21.29s-.07,1.1,1.41.96c1.48-.15.88-.16,2.07.09,1.19.25,1.36-.39,1.34-.8,0,0-.3.72-1.11.56-.53-.1-.86-.44-1.32-.48-.5-.04-1.24.35-1.56.33-.29-.02-.56-.16-.83-.66Z"/>
            <path class="cls-9" d="m14.73,21.14s-.36.22-1.06,0c-.7-.22-1.25-1.25-.37-1.79.87-.53,2.08-.05,2.23.43.2.63-.18,1.07-.8,1.36Z"/>
          </g>
          <g>
            <path class="cls-2" d="m15.01,17.88s.27-.7.98-.79c.71-.09.95.2,1.13.12,0,0-.4.87-.86.94-.47.07-1.32-.12-1.25-.27Z"/>
            <path class="cls-12" d="m15.99,17.09c-.15.02-.27.07-.38.13-.04.07-.07.15-.07.24,0,.29.23.52.52.52s.52-.23.52-.52c0-.15-.07-.28-.17-.38-.12-.01-.26-.01-.42.01Z"/>
            <path class="cls-1" d="m16.11,17.08s-.08,0-.12,0c-.02,0-.03,0-.05.01-.1.05-.16.14-.16.26,0,.16.13.29.29.29s.29-.13.29-.29c0-.14-.1-.25-.24-.28Z"/>
            <path class="cls-13" d="m16.59,17.31c0,.12-.1.21-.21.21s-.21-.09-.21-.21.09-.21.21-.21.21.1.21.21Z"/>
          </g>
          <g>
            <path class="cls-2" d="m13.71,17.88s-.27-.7-.98-.79c-.71-.09-.95.2-1.13.12,0,0,.4.87.86.94.47.07,1.32-.12,1.25-.27Z"/>
            <path class="cls-12" d="m12.73,17.09c.15.02.27.07.38.13.04.07.07.15.07.24,0,.29-.23.52-.52.52s-.52-.23-.52-.52c0-.15.07-.28.17-.38.12-.01.26-.01.42.01Z"/>
            <path class="cls-1" d="m12.61,17.08s.08,0,.12,0c.02,0,.03,0,.05.01.1.05.16.14.16.26,0,.16-.13.29-.29.29s-.29-.13-.29-.29c0-.14.1-.25.24-.28Z"/>
            <path class="cls-13" d="m13.08,17.41c0,.12-.09.21-.21.21s-.21-.1-.21-.21.1-.21.21-.21.21.1.21.21Z"/>
          </g>
        </g>
      </g>
    </g>
  </g>
</svg>