<?xml version="1.0" encoding="UTF-8"?>
<svg xmlns="http://www.w3.org/2000/svg" viewBox="0 0 64 64">
  <defs>
    <style>
      .cls-1 {
        fill: #4a495a;
      }

      .cls-2 {
        fill: #6d6a7a;
      }

      .cls-2, .cls-3, .cls-4 {
        mix-blend-mode: multiply;
      }

      .cls-2, .cls-4 {
        opacity: .55;
      }

      .cls-5 {
        fill: #a15326;
      }

      .cls-6 {
        fill: #10130d;
      }

      .cls-7 {
        isolation: isolate;
      }

      .cls-8 {
        fill: #121b1d;
      }

      .cls-9 {
        fill: #211f34;
      }

      .cls-10 {
        fill: #14192c;
      }

      .cls-11 {
        fill: #1d0f17;
      }

      .cls-12 {
        fill: #ebebeb;
      }

      .cls-13 {
        fill: #682f29;
      }

      .cls-3 {
        opacity: .32;
      }

      .cls-3, .cls-14, .cls-15 {
        fill: #3e3e4f;
      }

      .cls-15 {
        mix-blend-mode: screen;
        opacity: .15;
      }

      .cls-4, .cls-16 {
        fill: #8a5934;
      }

      .cls-17 {
        fill: #28273b;
      }
    </style>
  </defs>
  <g class="cls-7">
    <g id="Layer_1" data-name="Layer 1">
      <g>
        <path class="cls-9" d="m18.32,30.5s1.46,2.87.63,8.24c-.79,5.1-.79,6.11-.65,9.53.02.38-.04.75-.16,1.11-.42,1.24-1.22,4-1.84,5.21-.18.35-.55.57-.95.57h-1.41c-.49,0-.96-.19-1.27-.56-.29-.35-.44-.82.1-1.34.23-.22.56-.35,1.26-.43,0,0,1.11.14,1.44-1.2.32-1.34.56-8.36-.51-11.39-.44-1.24-1.69-3.7-1.98-4.57-1.17-3.48-.29-3.08.97-5.16,1.57-2.59,4.13-.62,4.38,0Z"/>
        <path class="cls-16" d="m18.22,45.56s-.1.07-.14.11c-.29.32-.68.62-1.02.79-.09.05-.19.08-.28.11-.1.05-.21.1-.3.14-.23.1-.49.18-.74.26.01,2.13-.12,4.02-.27,4.65-.32,1.34-1.44,1.2-1.44,1.2-.7.08-1.03.21-1.26.43-.55.52-.39,1-.1,1.34.31.37.79.56,1.27.56h1.41c.4,0,.77-.22.95-.57.61-1.21,1.41-3.97,1.84-5.21.12-.36.17-.73.16-1.11-.04-1.08-.07-1.91-.07-2.72Z"/>
        <path class="cls-4" d="m16.62,46.65c-.28.13-.58.23-.88.3.01,2.14-.12,4.04-.27,4.67-.32,1.34-1.44,1.2-1.44,1.2-.7.08-1.03.21-1.26.43-.55.52-.39,1-.1,1.34.31.37.79.56,1.27.56h1.41c.4,0,.77-.22.95-.57.61-1.21,1.41-3.97,1.84-5.21.12-.36.17-.73.16-1.11-.04-1.09-.07-1.93-.07-2.74-.49.43-1,.83-1.61,1.11Z"/>
        <path class="cls-9" d="m51.69,47.27c0-1.11-1.23-1.6-1.23-1.6l-.63-.53s-4.14-2.69-4.99-6.76c-.17-.84-.35-1.63-.54-2.39h-8.47l-.43,1.85c.39.29,2.7.67,3.03,1.18,3.89,5.93,7.78,7.87,9.42,8.15,1.64.28,1.94,3.5,1.98,4.85.03,1.35-.8,1.49-.8,1.49-1.06.12-1.24.53-1.16.91.1.44.53.73.98.73,2.13,0,2.58-.17,2.83-.94.28-.83,0-5.84,0-6.95Z"/>
        <path class="cls-16" d="m51.64,46.9h-4.74c.37.14.7.23.96.28,1.64.28,1.94,3.5,1.98,4.85.03,1.35-.8,1.49-.8,1.49-1.06.12-1.24.53-1.16.91.1.44.53.73.98.73,2.13,0,2.58-.17,2.83-.94.28-.83,0-5.84,0-6.95,0-.13-.02-.26-.05-.37Z"/>
        <path class="cls-4" d="m51.63,46.87h-4.82c.41.16.77.26,1.05.31,1.64.28,1.94,3.5,1.98,4.85.03,1.35-.8,1.49-.8,1.49-1.06.12-1.24.53-1.16.91.1.44.53.73.98.73,2.13,0,2.58-.17,2.83-.94.28-.83,0-5.84,0-6.95,0-.15-.02-.28-.06-.41Z"/>
        <path class="cls-17" d="m42.8,31.99s2.87-3.15,3.43-2.5c.56.65-1.2,3.71-1.71,4.72-.51,1.02-1.71-2.22-1.71-2.22Z"/>
        <path class="cls-14" d="m51.32,45.88s-4.14-2.69-4.99-6.76c-.85-4.08-1.59-7.23-5.85-8.52-3.87-1.18-13.25-.72-19.09-3.47-1.07-.5-3.82-6.29-4.16-8.48h-5.09c.56,1.11,1.39,5.19.46,8.43-.73,2.56-2.67,6.45,1.82,9.97,1.2.94,1.29,2.41,3.55,3.27,10.75,4.08,18.06-6.48,21.95-.56,3.89,5.93,7.78,7.87,9.42,8.15s1.94,3.5,1.98,4.85c.03,1.35-.8,1.49-.8,1.49-1.06.12-1.24.53-1.16.91.1.44.53.73.98.73,2.13,0,2.58-.17,2.83-.94.28-.83,0-5.84,0-6.95s-1.23-1.6-1.23-1.6l-.63-.53Z"/>
        <path class="cls-3" d="m12.9,25.54c.33-.12.67-.21,1.04-.24,1.78-.15,3.75.19,4.64-1.77.08-.17.15-.34.22-.52-.76-1.65-1.42-3.38-1.57-4.38h-5.09c.47.94,1.14,4.01.77,6.9Z"/>
        <path class="cls-15" d="m34.83,32.31c1.72-.24,3.16-1.36,4.78-1.93-4.26-.91-12.75-.69-18.2-3.24.87,3.71,5.87,6.22,13.42,5.17Z"/>
        <path class="cls-2" d="m53.17,48.01c0-1.11-1.23-1.6-1.23-1.6l-.63-.53s-1.38-.9-2.71-2.44c-.71.15-1.43.12-2.14-.16-2-.8-3.48-2.48-4.9-4.04-2.39-2.62-4.69-3.44-8.2-2.7-4.16.88-8.31,2.47-12.44.42-2.23-1.1-4.02-2.67-5.54-4.63-.19-.25-.37-.51-.55-.77-.59.18-2.43.33-3.24-.6-.21,1.93.26,4.06,2.83,6.08,1.2.94,1.29,2.41,3.55,3.27,10.75,4.08,18.06-6.48,21.95-.56,3.89,5.93,7.78,7.87,9.42,8.15,1.64.28,1.94,3.5,1.98,4.85.04,1.35-.8,1.49-.8,1.49-1.06.12-1.24.53-1.16.91.1.44.53.73.98.73,2.13,0,2.58-.17,2.83-.94.28-.83,0-5.84,0-6.95Z"/>
        <path class="cls-16" d="m52.27,52.58c-.06-1.57-.28-4.98-2.35-5.33-.8-.13-1.59,0-2.37.02.73.37,1.35.58,1.8.65,1.64.28,1.94,3.5,1.98,4.85.04,1.35-.8,1.49-.8,1.49-1.06.12-1.24.53-1.16.91.1.44.53.73.98.73,2.13,0,2.58-.17,2.83-.94.01-.04.03-.11.04-.17-.56-.61-.92-1.44-.94-2.21Z"/>
        <path class="cls-14" d="m19.01,31.34s1.46,2.87.63,8.24c-.79,5.1-.79,6.11-.65,9.53.02.38-.04.75-.16,1.11-.42,1.24-1.22,4-1.84,5.21-.18.35-.55.57-.95.57h-1.41c-.49,0-.96-.19-1.27-.56-.29-.35-.44-.82.11-1.34.23-.22.56-.35,1.26-.43,0,0,1.11.14,1.44-1.2s.51-8.34-.51-11.39c-1.02-3.06-2.59-7.13-1.02-9.73,1.57-2.59,4.13-.62,4.38,0Z"/>
        <path class="cls-16" d="m18.75,46.66c-.1.07-.2.14-.29.21-.59.42-1.31.72-2.04.78.03,2.2-.1,4.16-.25,4.81-.32,1.34-1.44,1.2-1.44,1.2-.7.08-1.03.21-1.26.43-.55.52-.39,1-.11,1.34.31.37.79.56,1.27.56h1.41c.4,0,.77-.22.95-.57.61-1.21,1.41-3.97,1.84-5.21.12-.36.17-.73.16-1.11-.04-.97-.07-1.75-.07-2.48-.06.02-.11.02-.17.03Z"/>
        <g>
          <g>
            <path class="cls-14" d="m16.06,14.09s1.12-2.22,1.36-3.53c.24-1.31.58-3.68.91-1.96.04.23-.12,1.27.21,2.18.33.91.98,3.86.87,4.26-.11.4-.65.98-1.27,1.78-.62.8-2.08-2.73-2.08-2.73Z"/>
            <path class="cls-5" d="m17.35,16.03c.24-.3.5-.57.74-.86.46-.57.35-1.16.25-1.84-.06-.43-.21-1.58-.7-.61-.19.37-.34.75-.51,1.12-.19.41-.42.76-.7,1.06.21.43.48.95.76,1.36.05-.08.1-.16.16-.24Z"/>
          </g>
          <g>
            <path class="cls-14" d="m14.07,14.09s-1.12-2.22-1.36-3.53c-.24-1.31-.58-3.68-.91-1.96-.04.23.12,1.27-.21,2.18-.33.91-.98,3.86-.87,4.26.11.4.65.98,1.27,1.78s2.08-2.73,2.08-2.73Z"/>
            <path class="cls-5" d="m12.79,16.03c-.24-.3-.5-.57-.74-.86-.46-.57-.35-1.16-.25-1.84.06-.43.21-1.58.7-.61.19.37.34.75.51,1.12.19.41.42.76.7,1.06-.21.43-.48.95-.76,1.36-.05-.08-.1-.16-.16-.24Z"/>
          </g>
          <path class="cls-14" d="m17.73,14.9c-.25-.5-1.26-.9-1.97-1.12-.47-.15-.98-.15-1.45,0-.71.22-1.71.61-1.97,1.12-.4.79-.77,1.84-.76,2.86,0,1,.54,2.98,1.14,3.73,0,0,.16.56.24,1.31.07.67.52,1.53,1.67,1.19.26-.08.54-.08.8,0,1.15.33,1.6-.52,1.67-1.19.08-.76.24-1.31.24-1.31.6-.75,1.13-2.72,1.14-3.73,0-1.03-.37-2.08-.76-2.86Z"/>
          <path class="cls-16" d="m18.18,18.15c-.18-.25-.51,1.33-1,1.22-.99-.21-1.23,1.13-2.16,1.13-.63,0-1.15-1.39-2.1-1.23-.38.06-.98-1.61-1.02-1.19-.03.31-.03,1.01.46,2.78.12.25.24.47.37.63,0,0,.16.56.24,1.31.07.67.52,1.03,1.67.69.26-.08.55-.08.81,0,1.15.33,1.6-.02,1.67-.69.08-.76.24-1.31.24-1.31.17-.22.34-.54.49-.9.34-1.21.43-2.29.33-2.43Z"/>
          <g>
            <path class="cls-11" d="m16.1,17.17s.36-.58.77-.52c.41.06.66.4.66.4,0,0-.26.76-.71.76s-.71-.63-.71-.63Z"/>
            <path class="cls-13" d="m17.32,17.22c0,.28-.23.51-.51.51s-.51-.23-.51-.51.23-.51.51-.51.51.23.51.51Z"/>
            <circle class="cls-8" cx="16.82" cy="17.22" r=".3"/>
            <path class="cls-12" d="m17.24,17.01c0,.12-.09.21-.21.21s-.21-.09-.21-.21.09-.21.21-.21.21.09.21.21Z"/>
          </g>
          <g>
            <path class="cls-11" d="m13.94,17.17s-.36-.58-.77-.52c-.41.06-.66.4-.66.4,0,0,.26.76.71.76s.71-.63.71-.63Z"/>
            <circle class="cls-13" cx="13.23" cy="17.22" r=".51"/>
            <circle class="cls-8" cx="13.23" cy="17.22" r=".3"/>
            <path class="cls-12" d="m13.65,17.01c0,.12-.09.21-.21.21s-.21-.09-.21-.21.09-.21.21-.21.21.09.21.21Z"/>
          </g>
          <path class="cls-16" d="m14.34,16.48c-.04.13-.2.2-.35.15-.15-.05-.24-.19-.2-.32s.2-.2.35-.15c.15.05.24.19.2.32Z"/>
          <path class="cls-16" d="m15.75,16.48c.04.13.2.2.35.15s.24-.19.2-.32-.2-.2-.35-.15c-.15.05-.24.19-.2.32Z"/>
          <path class="cls-10" d="m15.19,21.51l-.04-.02c.04-.09.06-.14.06-.14l-.19.09-.19-.09s.02.06.06.14l-.04.02c-.29.54-.61,1.05-.91,1.2-.55.28-1.02-.14-1.02-.14.97,1.1,1.76.53,2.1-.17.34.7,1.13,1.27,2.1.17,0,0-.49.43-1.06.12-.29-.16-.59-.66-.87-1.18Z"/>
          <path class="cls-1" d="m15.68,17.96c-.24-.32-.66-.07-.66-.07,0,0-.42-.26-.66.07-.25.33-.99,1.62-.84,2.2-.02.83.99,2.1,1.5,2.1h0c.5,0,1.49-1.22,1.49-2.1,0-.71-.59-1.87-.84-2.2Z"/>
          <path class="cls-10" d="m15.83,20c-.41-.05-1.21,0-1.62,0-.38,0-.59.4-.59.49,0,.7.89,1.77,1.4,1.77h0c.51,0,1.4-1.07,1.4-1.77,0-.07-.32-.47-.6-.5Z"/>
          <path class="cls-6" d="m16.11,20.85c0,.19-.25.49-.47.49s-.4-.16-.4-.35.18-.35.4-.35.47.02.47.21Z"/>
          <path class="cls-6" d="m13.93,20.85c0,.19.25.49.47.49s.4-.16.4-.35-.18-.35-.4-.35-.47.02-.47.21Z"/>
        </g>
      </g>
    </g>
  </g>
</svg>