<?xml version="1.0" encoding="UTF-8"?>
<svg id="Layer_1" data-name="Layer 1" xmlns="http://www.w3.org/2000/svg" viewBox="0 0 64 64">
  <defs>
    <style>
      .cls-1 {
        fill: #222633;
      }

      .cls-2 {
        fill: #1d1e27;
      }

      .cls-3 {
        fill: #121b1d;
      }

      .cls-4 {
        fill: #14192c;
      }

      .cls-5 {
        fill: #1d0f17;
      }

      .cls-6 {
        fill: #696a70;
      }

      .cls-7 {
        fill: #4a4b52;
      }

      .cls-8 {
        fill: #ebebeb;
      }

      .cls-9 {
        fill: #9a6733;
      }

      .cls-10 {
        fill: #10141f;
      }

      .cls-11 {
        fill: #9a7169;
      }
    </style>
  </defs>
  <path class="cls-10" d="m51.67,51.22c-.34-1.12-1.98-3.47-2.08-3.7.23.08.45.2.64.37-.42-.96-2.03-3.21-2.15-3.47.25.03.5.07.74.14-.47-.73-1.33-2.79-1.31-3.07.18.14.31.34.38.56.08-.98.32-3.83.4-4.03l.27.39c.35-1,.38-2.1.14-3.14h-13.14v2.17c1.1-.06,1.76.12,1.76.12-.03.2-.05.4-.07.59-.82,1.32-1.13,2.96-.82,4.49.21-.39.42-.79.63-1.18-.3.65-.26,1.42-.04,2.1.22.68.61,1.3.99,1.9-.08-.39-.1-.78-.05-1.17.84,1.73,2.17,3.23,3.79,4.27l-.21-.93c.06.03.12.07.19.11.72.96,2.01,1.51,2.48,2.64-.02-.33-.04-.65-.05-.98.29.22.57.45.84.66.37.44.63.96.77,1.51.15-.15.31-.29.46-.44.25.24.42.43.46.52.2.47-.22.56-.22.56-2.28-.03-2.6,1.6-2.35,2.48.09.33.75.55,1.03.55h5.36c1.08-.82.91-2.66.29-4.66.35.11.68.32.88.63Z"/>
  <path class="cls-10" d="m23.45,44.93c.14-1.83.26-3.75-.46-5.43-.36-3.18-1.34-6.23-2.03-7.38,0,0-2.32-2.75-4.49-1.21-2.17,1.55-2.75,3.59-1.88,7.14.87,3.55,1.62,13.16.82,13.7-.39.26-3.05-.31-3.05,2.1,0,.68.66,1.19,1.34,1.19h2.84c.75,0,1.45-.38,1.85-1.02.03-.04.06-.09.08-.13.21.08.39.25.42.48.13-.52.21-1.04.25-1.57.12-.2.24-.4.36-.61.21.28.34.62.38.97.28-.83.45-1.7.52-2.57.03-.06.07-.13.1-.19.22.4.38.83.47,1.28.66-1.17.93-2.55.8-3.89.04-.1.09-.2.13-.3.21.26.33.59.34.93.61-1.13.82-2.48.61-3.75.06-.24.1-.48.14-.71.25.28.42.63.46,1Z"/>
  <path class="cls-1" d="m44.73,30s2.15-4.71,3.89-4.28c1.74.43.22,3.91-.77,5.61s-3.43-.7-3.12-1.33Z"/>
  <path class="cls-1" d="m25.12,45.9c.14-1.83.26-3.75-.46-5.43-.36-3.18-1.34-6.23-2.03-7.38,0,0-2.32-2.75-4.49-1.21-2.17,1.55-2.75,3.59-1.88,7.14s1.62,13.16.82,13.7c-.39.26-3.05-.31-3.05,2.1,0,.68.66,1.19,1.34,1.19h2.84c.75,0,1.45-.38,1.85-1.02.03-.04.06-.09.08-.13.21.08.39.25.42.48.13-.52.21-1.04.25-1.57.12-.2.24-.4.36-.61.21.28.34.62.38.97.28-.83.45-1.7.52-2.57.03-.06.07-.13.1-.19.22.4.38.83.47,1.28.66-1.17.93-2.55.8-3.89.04-.1.09-.2.13-.3.21.26.33.59.34.93.61-1.13.82-2.48.61-3.75.06-.24.1-.48.14-.71.25.28.42.63.46,1Z"/>
  <path class="cls-1" d="m53.77,51.97c-.34-1.12-1.98-3.47-2.08-3.7.23.08.45.2.64.37-.42-.96-2.03-3.21-2.15-3.47.25.03.5.07.74.14-.47-.73-1.33-2.79-1.31-3.07.18.14.31.34.38.56.08-.98.32-3.83.4-4.03.09.13.18.26.27.39.48-1.36.36-2.89-.22-4.2-.1-.54-.25-1.09-.46-1.63.33.12.64.29.91.51-.26-1.24-1.2-2.27-2.36-2.76-.79-.77-1.85-1.38-3.3-1.66-6.74-1.3-21.82-1.49-23.2-5.33-.58-1.61-1.6-3.25-2.6-4.61-.47.47,0,.76-.47,1.23-.98.96-1.75,1.53-3.12,1.62-.22.01-.41-.04-.59-.12,0,0-.01,0-.02,0-.97-.07-2.41-.48-3.47-1.13.02.25.05.51.09.78.27,1.71.39,3.26.42,4.66-.19,1.02-.61,2-1.24,2.83.27-.02.54-.03.82-.05-.41,1.54-.91,3.05-1.5,4.53.53-.27,1.02-.62,1.45-1.03-.66,1.64-.55,3.57.28,5.13.03-.42.18-.82.43-1.16.04.07.08.14.12.21.07,1.64,1.03,3.22,2.47,4.01-.06-.35-.1-.7-.1-1.05.93.98,1.78,1.72,2.05,1.83.69.29-.73-2.07,3.48-.86,4.2,1.21,10.6-.53,13.64-1.84,3.04-1.3,5.27-.72,5.27-.72-.03.2-.05.4-.07.59-.82,1.32-1.13,2.96-.82,4.49.21-.39.42-.79.63-1.18-.3.65-.26,1.42-.04,2.1.22.68.61,1.3.99,1.9-.08-.39-.1-.78-.05-1.17.84,1.73,2.17,3.23,3.79,4.27l-.21-.93c.06.03.12.07.19.11.72.96,2.01,1.51,2.48,2.64-.02-.33-.04-.65-.05-.98.29.22.57.45.84.66.37.44.63.96.77,1.51.15-.15.31-.29.46-.44.25.24.42.43.46.52.2.47-.22.56-.22.56-2.31-.03-2.61,1.65-2.34,2.52.1.31.74.51,1.02.51h5.36c1.08-.82.91-2.66.29-4.66.35.11.68.32.88.63Z"/>
  <g>
    <path class="cls-1" d="m16.31,13.36s.55-.27.84-1.6c.3-1.33,1.23-4.18,1.54-3.69.31.49.08,2.39.39,3.15.3.76,1.09,2.74-.39,4.75,0,0-1.97-2.58-2.39-2.62Z"/>
    <path class="cls-11" d="m16.96,14.43s1.41-3.65,1.48-4.6c.08-.95.27,2.05.46,2.89.19.84-.81,2.85-.96,2.93-.15.08-.98-1.22-.98-1.22Z"/>
  </g>
  <g>
    <path class="cls-1" d="m14.15,13.43s-.53-.29-.78-1.63c-.24-1.34-1.06-4.22-1.39-3.74s-.18,2.39-.51,3.14c-.33.75-1.19,2.69.2,4.76,0,0,2.07-2.5,2.49-2.52Z"/>
    <path class="cls-11" d="m13.47,14.46s-1.26-3.7-1.3-4.65c-.04-.95-.35,2.04-.57,2.87s.7,2.88.84,2.96c.14.08,1.03-1.18,1.03-1.18Z"/>
  </g>
  <path class="cls-1" d="m13.57,25.56l.63-1.09c-.15.39-.07.83.12,1.2.19.37.48.68.77.98-.1-.55-.07-1.12.08-1.66.35.19.54.64.43,1.02.59-.39.97-1.09.97-1.8.49.18.79.76.65,1.26.4-.59.63-1.3.65-2.01.26.1.46.34.51.61.68-.49.99-1.43.74-2.23.32.09.59.33.72.63.2-.47.41-.95.48-1.45.07-.51-.01-1.06-.33-1.46-.1-.13-.23-.24-.3-.39-.19-.38.03-.83.07-1.26.04-.38-.08-.78-.33-1.08.2.03.39.1.55.22-.09-.9-.67-1.73-1.49-2.12.3-.04.61.03.86.19-.32-.62-.96-1.07-1.65-1.15.09,0,.17,0,.26,0,.1-.18-.13-.36-.33-.43-.35-.12-.71-.22-1.07-.28.1-.04.2-.08.3-.11-.22-.12-.44-.24-.69-.27s-.52.04-.67.24c-.49-.15-1.02-.14-1.5.02.2,0,.4.07.57.18-.67,0-1.33.19-1.9.55.19-.01.38.04.54.14-.74.4-1.45.87-2.11,1.39.21-.04.42-.09.62-.13-.55.32-.94.91-1.02,1.54.18-.09.37-.19.55-.28-.16.43-.22.9-.18,1.36.01.14.03.28,0,.41-.04.18-.18.32-.3.47-.65.81-.77,2-.29,2.92.05-.31.19-.6.39-.84-.2.89.06,1.86.66,2.53-.05-.29,0-.61.15-.87.02.78.35,1.55.91,2.09.04-.35.11-.7.19-1.04.47.55.74,1.27.75,2Z"/>
  <g>
    <path class="cls-5" d="m16.37,17.43s.16-.71.82-.71c.44,0,.77.52.77.52,0,0-.35.71-.83.71s-.76-.52-.76-.52Z"/>
    <circle class="cls-9" cx="17.12" cy="17.34" r=".47"/>
    <circle class="cls-3" cx="17.12" cy="17.34" r=".32"/>
    <path class="cls-8" d="m17.51,17.17c0,.12-.1.22-.22.22s-.22-.1-.22-.22.1-.22.22-.22.22.1.22.22Z"/>
  </g>
  <g>
    <path class="cls-5" d="m14.36,17.43s-.16-.71-.82-.71c-.44,0-.77.52-.77.52,0,0,.35.71.83.71s.76-.52.76-.52Z"/>
    <circle class="cls-9" cx="13.63" cy="17.34" r=".47"/>
    <circle class="cls-3" cx="13.63" cy="17.34" r=".32"/>
    <path class="cls-8" d="m14.01,17.17c0,.12-.1.22-.22.22s-.22-.1-.22-.22.1-.22.22-.22.22.1.22.22Z"/>
  </g>
  <path class="cls-7" d="m18.68,18.54c-.52.14-1.07.09-1.59-.04-.65-.16-1.35-.45-1.95-.14-.1.05-.2.12-.31.16-.14.05-.3.05-.44.04-.6-.05-1.18-.29-1.78-.37-.5-.07-1.69.44-1.81.58-.65.81-.77,2-.29,2.92.05-.31.19-.6.39-.84-.2.89.06,1.86.66,2.53-.05-.29,0-.61.15-.87.02.78.35,1.55.91,2.09.04-.35.11-.7.19-1.04.47.55.74,1.27.75,2l.63-1.09c-.15.39-.07.83.12,1.2.19.37.48.68.77.98-.1-.55-.07-1.12.08-1.66.35.19.54.64.43,1.02.59-.39.97-1.09.97-1.8.49.18.79.76.65,1.26.4-.59.63-1.3.65-2.01.26.1.46.34.51.61.68-.49.99-1.43.74-2.23.32.09.59.33.72.63.2-.47.41-.95.48-1.45.07-.51-.01-1.06-.33-1.46-.1-.13-.23-.24-.3-.39-.18-.36-.63-.74-1.02-.63Z"/>
  <path class="cls-7" d="m17.18,16.13c.06.09-.1.15-.21.14-.21-.01-.46.09-.51.3-.01.07,0,.14-.03.21-.05.13-.2.19-.26.31-.09.18.08.39.1.59.04.32-.28.64-.15.93-.27.07-.56.09-.84.08-.01-.16-.15-.88.1-.78.09-.25.2-.49.35-.72-.14.05-.28-.12-.27-.27.02-.15.13-.27.23-.38.13-.13.26-.27.4-.4.04-.04.08-.08.09-.13.03-.16-.21-.29-.15-.44.03-.08.13-.1.21-.12.53-.09,1.06-.17,1.58-.26.08-.01.17-.03.25,0,.08.03.14.11.12.19-.15.04-.3.11-.42.21.41.06.81.2,1.15.43-.22-.06-.48.03-.61.22.42.04.82.24,1.11.53-.21.02-.41.1-.58.22.22.08.36.34.3.57-.25-.08-.51-.16-.76-.24.03-.32-.17-.64-.46-.77-.17-.25-.45-.42-.75-.44Z"/>
  <path class="cls-7" d="m13.55,16.13c-.06.09.1.15.21.14.21-.01.46.09.51.3.01.07,0,.14.03.21.05.13.2.19.26.31.09.18-.08.39-.1.59-.04.32.28.64.15.93.27.07.56.09.84.08.01-.16-.26-.78-.1-.78-.09-.25-.2-.49-.35-.72.14.05.28-.12.27-.27-.02-.15-.13-.27-.23-.38-.13-.13-.26-.27-.4-.4-.04-.04-.08-.08-.09-.13-.03-.16.21-.29.15-.44-.03-.08-.13-.1-.21-.12-.53-.09-1.06-.17-1.58-.26-.08-.01-.17-.03-.25,0-.08.03-.14.11-.12.19.15.04.3.11.42.21-.41.06-.81.2-1.15.43.22-.06.48.03.61.22-.42.04-.82.24-1.11.53.21.02.41.1.58.22-.22.08-.36.34-.3.57.25-.08.51-.16.76-.24-.03-.32.17-.64.46-.77.17-.25.45-.42.75-.44Z"/>
  <path class="cls-2" d="m16.55,21.09c0,.49-.56.89-1.25.89s-1.25-.4-1.25-.89.56-.89,1.25-.89,1.25.4,1.25.89Z"/>
  <path class="cls-6" d="m14.1,21.76c.53-.06,1.03-.44,1.25-.97.12.55.69.86,1.21.87.13,0,.27-.01.39-.07.29-.15.42-.54.36-.88-.06-.34-.27-.62-.51-.85-.11-.11-.23-.21-.36-.28-.33-.18-.71-.21-1.08-.2-.57,0-1.19.1-1.62.51-.31.3-.48.75-.46,1.19,0,.14.03.29.11.41.15.23.44.29.7.27Z"/>
  <path class="cls-4" d="m15.15,20.64s-1.29-.81-1.36-1.5c-.07-.69.63-1.01,1.52-1.04.89-.04,1.94.53,1.34,1.4-.6.87-.92,1.26-1.5,1.14Z"/>
</svg>