<?xml version="1.0" encoding="UTF-8"?>
<svg xmlns="http://www.w3.org/2000/svg" viewBox="0 0 64 64">
  <defs>
    <style>
      .cls-1, .cls-2 {
        fill: #302627;
      }

      .cls-3 {
        fill: #684144;
      }

      .cls-4, .cls-5, .cls-6 {
        fill: #e2d9d4;
      }

      .cls-7 {
        fill: #c7b6ac;
      }

      .cls-8 {
        isolation: isolate;
      }

      .cls-9 {
        fill: #121b1d;
      }

      .cls-5, .cls-6, .cls-2 {
        mix-blend-mode: multiply;
      }

      .cls-10 {
        fill: #1d0f17;
      }

      .cls-11 {
        fill: #ebebeb;
      }

      .cls-12 {
        fill: #d7ceca;
      }

      .cls-13 {
        fill: #cac3bb;
      }

      .cls-14 {
        fill: #0d1012;
      }

      .cls-15 {
        fill: #d2cbc5;
      }

      .cls-16 {
        fill: #bcb3aa;
      }

      .cls-6, .cls-2 {
        opacity: .55;
      }
    </style>
  </defs>
  <g class="cls-8">
    <g id="Layer_1" data-name="Layer 1">
      <g>
        <path class="cls-16" d="m48.71,39.89c-2.1-1.25-3.69-4.03-3.8-8.37,0,0-.01-.01-.02-.02h-7.39v1.57c.25.05-.32.1-.32.1,3.55,7.61,9.02,8.41,9.89,9.21,1.14,1.06,2.41,3.89,2.41,4.65s-.54.82-.54.82c-.87.03-1.18.36-1.26.72-.1.46.27.9.74.93.95.08,2.49.2,3-.35.44-.48-.48-4.73-1.08-7.02-.24-.93-.8-1.75-1.63-2.24Z"/>
        <path class="cls-16" d="m16.5,28.71s3.91-.96,4.04,1.91c.13,2.88-1.14,5.33-1.44,7.06-.3,1.73-.48,4.61-.58,5.41-.1.8-1.66,6.22-2.72,6.31-1.06.08-3.46.35-3.46-.42,0-1.27,1.27-1.31,2.11-1.27.85.04,1.82-3.73,1.99-5.25s-.13-7.31-.51-9.55-.34-4.06.57-4.2Z"/>
        <path class="cls-13" d="m40.44,35.41s-3.3-1.27-4.61-.63c-1.31.63-12.17,5.87-17.83,1.9s-3.79-8.25-4.24-11.67c-.45-3.42,2.97-.3,3.1,0,.13.3,15.42,3.22,18.93,4.27,3.51,1.06,4.61,5.87,4.65,6.13Z"/>
        <path class="cls-15" d="m40.94,25.73s3.19.15,4.55.81,3.87,2.29,4.96,4.75c1.53,3.46,3.5,4.64,5.11,5.24,1.62.6-1.62,1.62-4.12-1.05-2.5-2.66-2.06-6.21-7.1-7.1,0,0-3.92-2.41-3.41-2.66Z"/>
        <path class="cls-4" d="m15,14.4s2.92,3.98,4.12,6.01c.73,1.23,2.65,2.84,4.52,3.97,1.21.73,4.6,1.37,5.57,1.25,2.97-.35,7.28-1.29,9.63-1.1,3.11.25,7.29,3.17,7.48,8.11.17,4.45,1.93,7.2,4.18,8.31.49.24.86.65,1.01,1.17.55,2.01,1.81,7.32,1.31,7.88-.5.55-2.04.43-2.99.35-.52-.04-.89-.56-.71-1.05.12-.31.45-.58,1.23-.61,0,0,.54-.06.54-.82s-1.56-4.33-2.28-5.27c-.72-.94-5.79-.98-9.34-8.59,0,0-1.94-.85-8.87.59-6.93,1.44-9.55,1.39-12.17-.51-2.62-1.9-3.84-3.59-4.18-7.18s-1.61-6.51-2.37-8.87c-.76-2.37,3.34-3.64,3.34-3.64Z"/>
        <path class="cls-5" d="m13.7,24.72c.63-.11,1.25-.24,1.86-.4.21-.06,1.94-.67,1.31-.35,1.01-.51.75-.14,1.48-1.03.18-.22.74-1.26.95-1.75.05-.11.09-.22.13-.33-.12-.15-.22-.3-.31-.45-1.2-2.03-4.12-6.01-4.12-6.01,0,0-4.1,1.27-3.34,3.64.6,1.86,1.51,4.08,2.03,6.68Z"/>
        <path class="cls-4" d="m17.35,29.77s3.91-.96,4.04,1.91-1.14,5.33-1.44,7.06c-.3,1.73-.48,4.61-.58,5.41-.1.8-1.66,6.22-2.72,6.31-1.06.08-3.46.35-3.46-.42,0-1.29,1.27-1.31,2.11-1.27s1.82-3.73,1.99-5.25c.17-1.52-.13-7.31-.51-9.55-.38-2.24-.34-4.06.57-4.2Z"/>
        <path class="cls-4" d="m17.35,29.77s3.91-.96,4.04,1.91-1.14,5.33-1.44,7.06c-.3,1.73-.48,4.61-.58,5.41-.1.8-1.66,6.22-2.72,6.31-1.06.08-3.46.35-3.46-.42,0-1.29,1.27-1.31,2.11-1.27s1.82-3.73,1.99-5.25c.17-1.52-.13-7.31-.51-9.55-.38-2.24-.34-4.06.57-4.2Z"/>
        <path class="cls-1" d="m23.65,25.95c-.04.17.13.33.12.51.16.01.31-.11.38-.25s.08-.31.09-.47c-.03-.02-.07-.04-.1-.06-.2.01-.45.07-.49.26Z"/>
        <path class="cls-1" d="m34.71,28.19c-.21.08-.09.5-.27.62.24.29.57.45.81.46.24.01.41-.1.56-.22l-.11-.23c-.32-.33-.75-.72-.98-.64Z"/>
        <g>
          <path class="cls-7" d="m15.84,20.09c-.4-.26-.81-.46-1.24-.63-.82.01-1.59.81-2.14,1.5.03.2.04.4.04.63,0,.78.79,1.1,1.5.95.12-.03.47-.03.55-.01.53.14,1.07.16,1.57-.25.5-.4.57-.9.6-1.37-.16-.34-.64-.65-.89-.82Z"/>
          <path class="cls-4" d="m15.34,13.43s-2.94.07-3.32.89c-.38.82-1.03,3.04-.44,4.24.58,1.2.91,1.85.93,3.04.01,1.2,1.67.55,1.91.17,0,0,.82,1.1,1.71.52.89-.59.41-1.71.78-2.09s2.26-1.76,1.51-4.65c-.45-1.73-2.5-1.98-3.08-2.12Z"/>
          <path class="cls-1" d="m15.27,15.38s.02.06.04.08c.02.01.04.02.07.02.16.02.33-.07.4-.22s.03-.33-.08-.45c-.11-.1-.3-.17-.3-.32-.1.03-.21.06-.31.08-.07.02-.14.04-.2.09-.05.05-.08.13-.04.2.2.12.35.3.43.52Z"/>
          <path class="cls-1" d="m17.82,16.29c-.04.08-.09.16-.17.2-.07.05-.18.06-.25,0-.07-.06-.07-.16-.09-.25-.02-.09-.09-.19-.18-.17.07-.15.18-.27.32-.36.08-.05.17-.09.26-.07.13.02.21.16.21.29,0,.13-.05.25-.11.37Z"/>
          <path class="cls-1" d="m12.99,15.45s-.07-.07-.11-.09c-.12-.05-.26.04-.32.16-.05.12-.04.26-.02.39.02.13.04.27,0,.39.18.05.37-.05.51-.17.06-.05.12-.1.15-.17.07-.18-.07-.37-.2-.5Z"/>
          <path class="cls-1" d="m13.35,13.71c0,.06.01.13.05.18.03.04.08.08.12.1.26.11.59-.12.58-.4,0-.02,0-.04-.01-.05-.24.03-.49.07-.74.12,0,.02,0,.04,0,.06Z"/>
          <path class="cls-1" d="m13.37,21.52c.08.06.22.1.29.02.05-.05.07-.15.14-.17-.03-.05-.06-.1-.08-.15-.17-.03-.35-.04-.53-.02.02.13.08.25.19.33Z"/>
          <path class="cls-1" d="m15.55,18.87c.13-.17.21-.38.21-.59,0-.05,0-.1-.04-.13-.07-.07-.18.01-.28.04-.08.02-.16,0-.25,0-.08,0-.18.03-.21.11-.04.09.04.19.11.27.09.1.18.19.27.29.04.04.08.08.13.06.02,0,.04-.03.05-.04Z"/>
          <path class="cls-12" d="m16.87,17.94c-.96.21-.97,1.28-1.44,1.98-.34.5-1.33.68-1.65-.06-.2-.47-.3-.9-.38-1.4-.22-1.31-1.35-.75-1.79.16.56,1.16.89,1.81.9,2.98.01,1.2,1.67.55,1.91.17,0,0,.82,1.1,1.71.52.89-.59.41-1.71.78-2.09.19-.19.74-.62,1.16-1.35-.17-.44-.59-1.04-1.2-.9Z"/>
          <path class="cls-6" d="m11.53,17.83c.03-.43.17-.85.34-1.25.41-.94,1.01-1.86,1.16-2.86-.48.13-.88.32-1,.59-.37.81-1.01,3-.46,4.2-.03-.23-.06-.46-.04-.68Z"/>
          <path class="cls-6" d="m17.16,16.04c.38.61.8,1.29,1.01,1.98.04.13.07.27.1.42.31-.72.46-1.67.15-2.89-.29-1.11-1.24-1.61-2.03-1.86.12.82.3,1.61.77,2.36Z"/>
          <path class="cls-1" d="m17.19,19.1s-.02-.04-.04-.06c-.16-.16-.37-.29-.6-.32-.23-.03-.48.05-.62.24-.02.03-.04.06-.04.09,0,.05.05.09.1.12.11.07.22.14.33.21.1.07.21.13.32.15.24.04.49-.12.55-.36,0-.03,0-.05,0-.08Z"/>
          <path class="cls-1" d="m12.12,18.62c-.15-.06-.3.02-.44.13.14.29.26.54.37.79.03-.03.06-.06.08-.1.08-.13.17-.27.19-.43.02-.16-.05-.33-.19-.39Z"/>
          <path class="cls-14" d="m16.13,22.02c-.89.59-1.71-.52-1.71-.52-.23.36-1.71.96-1.89-.01,0,0-.01,0-.02,0,0,.03,0,.06,0,.1.01,1.2,1.67.55,1.91.17,0,0,.82,1.1,1.71.52.34-.22.45-.53.48-.84-.02.01-.25.43-.48.58Z"/>
          <g>
            <path class="cls-10" d="m15.75,17.27s.18-.81.93-.81c.5,0,.88.59.88.59,0,0-.39.81-.94.81s-.86-.59-.86-.59Z"/>
            <path class="cls-3" d="m17.23,17.16c0,.34-.27.61-.61.61s-.61-.27-.61-.61.27-.61.61-.61.61.27.61.61Z"/>
            <path class="cls-9" d="m16.98,17.16c0,.2-.16.36-.36.36s-.36-.16-.36-.36.16-.36.36-.36.36.16.36.36Z"/>
            <path class="cls-11" d="m17.12,16.9c0,.14-.11.25-.25.25s-.25-.11-.25-.25.11-.25.25-.25.25.11.25.25Z"/>
          </g>
          <g>
            <path class="cls-10" d="m14.17,17.18s-.18-.81-.93-.81c-.5,0-.88.59-.88.59,0,0,.39.81.94.81s.86-.59.86-.59Z"/>
            <circle class="cls-3" cx="13.33" cy="17.07" r=".61"/>
            <circle class="cls-9" cx="13.33" cy="17.07" r=".36"/>
            <circle class="cls-11" cx="13.58" cy="16.81" r=".25"/>
          </g>
          <path class="cls-14" d="m14.39,21.69s-.35-.12-.55-.3c-.33-.29-1.08-1.31-.37-1.87.83-.65,2.5-.22,2.43.64-.08.92-1.17,1.56-1.5,1.53Z"/>
          <path class="cls-1" d="m12.51,13.91s.1-.44-.99,0c-1.09.44-1.89.82-2.73,1.07-.84.25-.96,1.7-.57,2.64.39.94,1.23,2.22,1.41,2.82s.3.46.77-.11c.48-.57,1.02-1.74.95-2.91-.06-1.17.6-3.02,1.15-3.52Z"/>
          <path class="cls-1" d="m17.23,14.15s-.1-.44.99,0c1.09.44,1.89.82,2.73,1.07.84.25.96,1.7.57,2.64s-1.23,2.22-1.41,2.82-.3.46-.77-.11c-.48-.57-1.02-1.74-.95-2.91.06-1.17-.6-3.02-1.15-3.52Z"/>
          <path class="cls-4" d="m19.23,15.41c-.07.03-.09.1-.09.16,0,.1.01.21.03.31,0,.02,0,.03.02.04.01.01.03.02.05.03.2.06.46-.07.47-.24.01-.16-.19-.31-.4-.32-.03,0-.06,0-.09,0Z"/>
          <path class="cls-4" d="m18.83,18.32s.06.02.1.01c.27-.05.42-.35.53-.61.03-.07.05-.16-.02-.19-.02-.01-.06-.01-.08,0-.33.04-.6.37-.56.7,0,.03.01.07.04.09Z"/>
          <path class="cls-4" d="m21.38,17.12c-.1,0-.2.03-.27.1-.09.1-.07.26-.04.4.03.14.06.27.09.41.01.06.03.13.07.18,0,0,0,0,0,0,.05,0,.09.01.14.01.06-.12.11-.24.16-.36.09-.22.15-.47.18-.73-.11-.02-.22-.03-.33-.02Z"/>
          <path class="cls-4" d="m20.06,19.2c-.12,0-.24.02-.34.09-.09.07-.15.21-.1.31.03.07.1.12.17.17.15.1.3.2.45.3.03.02.07.04.11.06.1-.2.22-.42.34-.65-.17-.17-.4-.28-.64-.29Z"/>
          <path class="cls-4" d="m9.93,14.69c.08.2.28.34.49.41.11.03.24.05.34,0,.16-.08.22-.31.16-.48-.05-.14-.16-.25-.28-.34-.26.11-.5.21-.73.3,0,.04,0,.08.02.11Z"/>
          <path class="cls-4" d="m8.03,16.13c-.02.14-.02.29-.02.44.03-.01.07-.03.1-.05.14-.09.21-.27.19-.42-.02,0-.04,0-.05,0-.07,0-.14.02-.21.02Z"/>
          <path class="cls-4" d="m9.92,17.46c0,.06.03.12.06.17.05.11.05.24,0,.34.12.05.26.02.35-.07.09-.09.12-.23.08-.35-.05-.12-.18-.21-.31-.21-.08,0-.16.04-.18.12Z"/>
          <path class="cls-4" d="m8.95,19.08c.17.31.33.61.46.86.1,0,.2-.04.27-.12.14-.16.08-.44-.09-.57-.17-.14-.39-.17-.61-.18-.01,0-.02,0-.03,0Z"/>
          <path class="cls-2" d="m11.69,15.44c-.38.49-.68,1.23-1.04,1.55-.73.66-1.78.66-2.58.15.04.17.08.33.14.49.39.94,1.23,2.22,1.41,2.82s.3.46.77-.11c.48-.57,1.02-1.74.95-2.91-.03-.58.11-1.32.34-1.99Z"/>
          <path class="cls-2" d="m19.45,17.96c-.56-.14-.87-.57-1.11-1.08.04.28.06.55.05.79-.06,1.17.47,2.34.95,2.91.48.57.59.71.77.11.18-.6,1.03-1.88,1.41-2.82.11-.27.18-.59.2-.91-.5.74-1.38,1.23-2.27,1.01Z"/>
        </g>
        <path class="cls-1" d="m16.81,22.96s.08.04.12.05c.32.05.67-.01.91-.23.24-.22.31-.63.1-.87-.09-.11-.22-.18-.31-.28-.09-.1-.15-.27-.05-.38-.17-.06-.36-.13-.54-.11-.19.01-.38.12-.43.3-.06.21.09.42.15.63.07.24,0,.5.01.76,0,.05,0,.11.04.14Z"/>
        <path class="cls-1" d="m14.78,22.8c-.11-.06-.23-.1-.35-.08-.14.02-.25.13-.35.23-.21.21-.43.42-.64.63.11.44.21.89.3,1.35.03.06.06.13.1.18.27.35.78.47,1.18.31.37-.15.63-.52.69-.91s-.06-.8-.29-1.13c-.17-.24-.39-.43-.65-.57Z"/>
        <path class="cls-1" d="m16.86,26.77c-.2-.28-.54-.48-.87-.42-.36.06-.63.44-.57.79.03.21.16.4.31.54.29.28.77.45,1.09.21.33-.25.29-.79.04-1.13Z"/>
        <path class="cls-1" d="m19.53,30.68c.08.49.43.88.78,1.23.56.56,1.24,1.12,2.03,1.12.11,0,.23-.01.31-.08.31-.24-.02-.81.24-1.09.31-.27.7-.44,1.1-.49.06,0,.11-.01.16-.05.04-.04.05-.1.06-.15.06-.69-.51-1.28-1.1-1.65-.67-.42-1.49-.71-2.26-.54-.78.17-1.46.93-1.33,1.71Z"/>
        <path class="cls-1" d="m27.72,33.6c.15-.23,0-.57-.23-.71-.24-.14-.53-.15-.81-.16-.18,0-.36,0-.52.07-.16.08-.29.25-.25.42.04.17.21.26.37.33.2.08.41.15.62.2.29.07.66.09.82-.16Z"/>
        <path class="cls-1" d="m27.67,30.35c.3.1.61.21.92.16.31-.05.61-.32.57-.64-.01-.11-.06-.2-.11-.3-.12-.21-.29-.39-.49-.52-.08-.3-.51-.43-.75-.23-.04.03-.07.07-.1.11-.16.19-.32.38-.48.57-.06.07-.11.14-.14.22-.04.15.04.31.16.41.12.1.27.15.42.21Z"/>
        <path class="cls-1" d="m29.31,31.52c.07.08.19.12.3.13.25.02.51-.12.63-.34.05-.08.08-.18.15-.25.11-.11.29-.1.44-.11.15-.02.33-.1.34-.25,0-.1-.06-.18-.13-.25-.29-.27-.73-.36-1.1-.23-.37.13-.66.47-.72.86-.02.15-.01.32.09.43Z"/>
        <path class="cls-1" d="m33.11,27.13c.19-.03.38.01.57.02s.4-.04.5-.21c.14-.24-.05-.53-.28-.69-.45-.32-1.04-.4-1.57-.25-.53.15-.98.51-1.28.96-.09.14-.17.32-.09.47.04.08.12.13.2.16.37.18.83.16,1.19-.04.26-.14.48-.37.76-.43Z"/>
        <path class="cls-1" d="m37.11,31.68c.19.41-.02.94-.4,1.18s-.91.19-1.29-.06c-.09-.06-.17-.12-.26-.17-.3-.17-.67-.14-1.02-.11-.45.04-.91.09-1.36.13-.2.02-.47-.02-.49-.21-.01-.11.07-.21.16-.28.29-.26.63-.46.97-.64.54-.29,1.1-.55,1.7-.63.6-.08,1.26.04,1.71.45.11.1.21.22.28.36Z"/>
        <path class="cls-1" d="m39.89,27.38c.18-.05.37-.09.56-.04.33.09.5.44.6.76.07.21.13.44.11.66-.05.53-.68.92-1.18.74-.11-.32-.47-.49-.8-.59-.33-.09-.69-.15-.95-.37-.1-.08-.18-.19-.19-.32-.03-.31.34-.47.64-.54l1.2-.3Z"/>
        <path class="cls-1" d="m43.26,30.22c-.03.07-.04.15-.04.23-.03.41-.07.83-.1,1.24.25.02.5-.01.74-.09.2-.07.4-.18.53-.35.13-.17.17-.42.06-.6-.11-.19-.38-.27-.55-.15.07-.17-.02-.38-.18-.46-.17-.07-.38.01-.46.18Z"/>
        <path class="cls-1" d="m43.7,33.76c-.09.08-.14.21-.17.33-.1.34-.16.69-.18,1.04-.01.27.01.57.17.79.16.22.5.34.72.18-.02-.36.1-.72.33-.99.13-.16.3-.3.36-.5.12-.37-.21-.74-.56-.89-.22-.09-.49-.12-.67.04Z"/>
        <path class="cls-1" d="m48.25,39.86c-.04-.1-.04-.21,0-.31-.29-.23-.66-.36-1.03-.35-.18,0-.38.04-.52.15-.15.11-.24.31-.19.49.06.21.29.33.51.39.45.12,1.03.05,1.23-.37Z"/>
        <path class="cls-1" d="m50.71,43c-.22.09-.14.42-.02.62.1.17.2.35.29.52.37-.11.59-.56.44-.91-.04-.02-.09-.04-.09-.09s.07-.08.08-.03c-.21.12-.47-.21-.7-.11Z"/>
        <path class="cls-1" d="m19.44,38.56c-.27.03-.49.23-.6.48-.11.25-.11.53-.07.79,0,.02,0,.05,0,.07-.03.25-.05.53.09.74.08.13.22.22.37.26.15.06.31.06.46.02.08-.77.17-1.55.28-2.17,0-.03.01-.05.02-.08-.17-.06-.34-.12-.52-.1Z"/>
        <path class="cls-1" d="m17.7,44.76c.21-.46.51-.95.62-1.46-.06-.14-.2-.23-.35-.24-.16-.01-.33.05-.47.13-.06.03-.12.08-.18.11,0,.07,0,.15-.02.2-.05.44-.17,1.04-.33,1.67.31.01.59-.09.74-.42Z"/>
        <path class="cls-1" d="m18.46,33.7c-.1-.01-.19.02-.29,0-.21-.04-.3-.28-.38-.49-.08-.21-.2-.42-.37-.57-.18-.15-.43-.22-.64-.14-.08.13-.12.28-.14.43.04.33.09.67.15,1.03.1.56.19,1.34.26,2.23.02.01.03.02.05.04.09.06.19.13.31.14.22.02.39-.16.54-.33.41-.49.84-1.03.9-1.66.02-.28-.09-.64-.38-.67Z"/>
        <path class="cls-1" d="m19.77,24.94c-.09.38-.14.86.16,1.12.38.34,1.11.1,1.4.52.13.18.12.43.22.64.13.28.45.42.76.43.28-.69-.07-1.53.28-2.19.05-.09.11-.18.11-.28,0-.14-.12-.26-.24-.32-.13-.06-.27-.08-.4-.13-.51-.2-.81-.87-1.35-.87-.26,0-.49.16-.64.37-.15.21-.22.46-.28.71Z"/>
        <path class="cls-1" d="m23.94,27.68c-.02.13.04.26.11.37.19.32.5.6.87.61.37.01.74-.36.62-.71-.14-.13-.14-.36-.28-.49-.09-.09-.22-.11-.35-.13-.19-.03-.39-.07-.57-.02-.19.04-.37.19-.39.38Z"/>
        <path class="cls-1" d="m17.12,30.37s.1.07.16.08c.16.04.35.02.47-.1.12-.12.11-.36-.05-.42-.09,0-.16-.06-.25-.06-.06,0-.11.04-.15.07-.07.05-.14.11-.18.18-.04.08-.05.18,0,.25Z"/>
        <path class="cls-1" d="m37.39,26.17c0,.07.02.14.06.21.1.18.28.33.48.34.21,0,.41-.2.34-.4-.08-.07-.08-.2-.16-.28-.05-.05-.12-.06-.19-.07-.11-.02-.21-.04-.32-.01-.1.02-.2.1-.22.21Z"/>
        <path class="cls-1" d="m41.01,32.58c.03.07.09.11.16.15.18.1.41.14.59.04.18-.1.25-.39.09-.52-.11-.02-.17-.13-.28-.15-.07-.02-.14.01-.2.04-.1.04-.2.08-.28.16s-.12.19-.08.29Z"/>
      </g>
    </g>
  </g>
</svg>