<?xml version="1.0" encoding="UTF-8"?>
<svg xmlns="http://www.w3.org/2000/svg" viewBox="0 0 64 64">
  <defs>
    <style>
      .cls-1 {
        fill: #fbf0e6;
      }

      .cls-2 {
        fill: #97a6c6;
      }

      .cls-3, .cls-4 {
        fill: #3a2b2d;
      }

      .cls-5 {
        isolation: isolate;
      }

      .cls-6 {
        fill: #14192c;
      }

      .cls-7 {
        fill: #fffbf7;
      }

      .cls-8 {
        fill: #eeeeef;
      }

      .cls-9 {
        fill: #ddb58f;
      }

      .cls-10 {
        fill: #f8e6d6;
      }

      .cls-11 {
        fill: #edd5be;
      }

      .cls-12 {
        fill: #b97458;
      }

      .cls-4 {
        mix-blend-mode: screen;
        opacity: .32;
      }
    </style>
  </defs>
  <g class="cls-5">
    <g id="Layer_1" data-name="Layer 1">
      <g>
        <path class="cls-9" d="m21.82,40.62c-1.05-.87-1.77-2.19-2.28-3.51-1.01-2.64-1.89-5.58-2.16-8.47-.34.57-3.39,2.89-1.61,8.2,1.94,5.81,3.4,7.88,3.4,9.11s-1,5.75-1.44,5.71c-.35-.03-2.33.11-2.85,1.1-.22.41.1.9.56.9h4.17c.19,0,3.15-6.81,3.01-7.71-.1-.65-.63-3.98-.79-5.34Z"/>
        <path class="cls-9" d="m48.41,36.25c.03-.33.04-.64.05-.95h-8.49l.49,3.21c.21.94,1.26,6.92,7.6,8.8,0,0,.53.84.46,1.74s-.39,2.63-1.08,2.63c-.59,0-2.47.2-2.82,1.29-.1.32.14.66.48.66,1.09.02,3.61.07,4.28-.01,0,0,2.08-7.81,2.19-8.99s-3.76-1.83-3.16-8.38Z"/>
        <path class="cls-10" d="m47.53,29.52s7.17,3.42,7.73,8.98c.56,5.55.32,6.11.74,7.17,0,0-4.9-.46-5.55-7.26-.65-6.8-2.59-7.26-2.59-7.26l-.32-1.62Z"/>
        <path class="cls-3" d="m49.61,33.87c1.04,1.02,2.03,2.25,2.64,3.42.65,1.27.8,2.94,1.6,4.1.4.58,1.06.86,1.75,1.1-.06-.94-.16-2.2-.34-4-.56-5.55-7.73-8.98-7.73-8.98l.32,1.62s.96.23,1.76,2.73Z"/>
        <path class="cls-10" d="m14.22,19.52s-6.56-2.36-1.39,12.28c1.2,3.39,3.37,6.87,6.94,8.54,9.53,4.45,18.81.35,22.17-2.03,0,0,.88,7.17,7.82,9.22,0,0,.49.77.42,1.68-.07.9-.28,3.64-.97,3.64-.59,0-2.47.2-2.82,1.29-.1.32.14.66.48.66,1.09.02,3.61.07,4.28-.01,0,0,2.08-6.18,2.19-7.36.1-1.18-3.76-3.46-3.16-10.02.6-6.55-3.24-10.3-7.08-10.99-3.84-.69-12.42,1.92-16.8-.72-4.37-2.64-5.34-7.08-5.34-7.08l-6.73.89Z"/>
        <path class="cls-3" d="m50.17,37.42c.6-6.55-3.24-10.3-7.08-10.99-3.84-.69-12.42,1.92-16.8-.72-4.37-2.64-5.34-7.08-5.34-7.08l-1.43.19c-.03,1.42,1.54,2.31,1.46,3.73-.08,1.45.73,1.28-.36,3.3-.26.48-.81,1.3-1.71,2.8-1,1.69,1.34,3.92,1.93,5.75.61,1.9,1.1,3.82,3.08,4.7,2.62,1.17,5.98,1.55,8.83,1.29,3.36-.31,6.09-1.24,8.45-3.6.63-.63,1.57-.27,1.86.49.24.64.44,1.3.64,1.96.3.38.6.68,1.2.94.58.25,1.13.58,1.46,1.14.36.62.44,1.29.52,1.93.13,1.05.78,1.97,1.74,2.44,1.57.77,3.06,1.56,3.41,3.81.07.43.41.76.58,1.15.38-1.16.7-2.78.74-3.22.1-1.18-3.76-3.46-3.16-10.02Z"/>
        <path class="cls-4" d="m21.11,24.72c4.22,2.37,6.69,8.45,12.1,8.25,3.35-.12,6.53-1.59,9.89-1.59,1.74,0,3.79.26,5.02-1.3.08-.1.14-.2.21-.31-1.37-1.87-3.3-2.99-5.23-3.34-3.84-.69-12.42,1.92-16.8-.72-4.37-2.64-5.34-7.08-5.34-7.08l-1.43.19c-.03,1.42,1.54,2.31,1.46,3.73-.06,1.1.39,1.27.13,2.17Z"/>
        <path class="cls-10" d="m22.91,41.24c-1.05-.87-1.77-2.19-2.28-3.51-1.01-2.64-1.89-5.58-2.16-8.47-.34.57-2.28,4.12-.51,9.44,1.94,5.81,2.29,6.65,2.29,7.88s-1,5.75-1.44,5.71c-.35-.03-2.33.11-2.85,1.1-.22.41.1.9.56.9h4.17c.19,0,3.15-6.81,3.01-7.71-.1-.65-.63-3.98-.79-5.34Z"/>
        <path class="cls-3" d="m22.92,39.93c.3-1.23,3.99-5.88.51-10.09-3.07-3.7-4.65-1.11-4.9-.67,0,0-.08.11-.19.33-.1.19-.19.39-.27.59-.37.95.03,2.02.93,2.5.4.21.74.41.81.49.47.5.63,1.45.44,2.09-.44,1.51-1.04,2.77-1.08,4.4,0,.01,0,.02,0,.03.32,1.31.79,2.72,1.6,3.88.69.97,1.9,1.62,2.77,1.98-.25-1.62-.81-4.74-.61-5.53Z"/>
        <g>
          <path class="cls-3" d="m16.95,13.47s3.43-3.18,3.89-4.06c.56-1.09,1.8,1.79,2.54,3.32.74,1.53.39,3.26-1.02,4.58-1.41,1.32-4.4-3.66-5.41-3.84Z"/>
          <path class="cls-10" d="m17.61,14.25s2.77-2.56,3.14-3.28c.45-.88,1.45,1.45,2.05,2.68.6,1.23.32,2.63-.82,3.69-1.14,1.06-3.54-2.95-4.37-3.1Z"/>
          <path class="cls-12" d="m21.55,13.07c-.06-.23-.24-1.27-.58-.67-.22.4-.42.83-.73,1.18-.49.57-1.04,1.06-1.62,1.53.7.76,1.57,1.82,2.32,2.24.55-1.38,1-2.81.6-4.28Z"/>
        </g>
        <g>
          <path class="cls-3" d="m14.81,13.47s-3.43-3.18-3.89-4.06c-.56-1.09-1.8,1.79-2.54,3.32-.74,1.53-.39,3.26,1.02,4.58,1.41,1.32,4.4-3.66,5.41-3.84Z"/>
          <path class="cls-10" d="m14.15,14.25s-2.77-2.56-3.14-3.28c-.45-.88-1.45,1.45-2.05,2.68-.6,1.23-.32,2.63.82,3.69,1.14,1.06,3.54-2.95,4.37-3.1Z"/>
          <path class="cls-12" d="m10.21,13.07c.06-.23.24-1.27.58-.67.22.4.42.83.73,1.18.49.57,1.04,1.06,1.62,1.53-.7.76-1.57,1.82-2.32,2.24-.55-1.38-1-2.81-.6-4.28Z"/>
        </g>
        <path class="cls-3" d="m9.13,22.62c2.34-.94,4.09-1.91,6.82-1.4,2.01.38,4.3,1.18,6.13,2.32.8-1,1.4-1.97,1.37-2.63-.07-1.87-3.17-8.7-7.55-8.02,0,0-1.73-.52-2.7.45-.97.97-5.03,5.13-4.54,7.81.1.52.26,1.01.47,1.47Z"/>
        <path class="cls-1" d="m22.71,22.7c-.22-.33-.46-.67-.57-1.12-.28-1.15-.31-2.64-.85-2.95-.54-.31-2.65-3.02-2.86-3.12-.21-.1-.73-.31-1.15.14-.4.44-.83.65-1.24.57-.41-.08-.43-.02-1.22-.71-.8-.69-2.98,1.72-3.92,2.7-.69.72-.07,1.9-1.11,3.08-.43.48-.62.81-.7,1.22.85,1.94,2.6,3.87,4.06,5.15,1.78,1.55,1.88,1.38,2.4,2.35,0,0,1.39-1.46,2.57-2.12,1.32-.75,3.45-2.82,4.6-5.18Z"/>
        <g>
          <path class="cls-3" d="m15.61,18.06c.05-.61-.11-1.62-.03-2.14-.14-.26-.26-.16-.56-.42-.04-.04-.09-.06-.13-.08.16.59.4.95.4,1.63,0,2.37.2,2.21.28,2.11.15-.18.02-.87.04-1.11Z"/>
          <path class="cls-3" d="m17.18,15.5c-.3.26-.41.16-.56.42.08.52-.07,1.53-.03,2.14.02.23-.12.92.04,1.11.08.1.28.26.28-2.11,0-.68.24-1.04.4-1.63-.05.02-.09.04-.13.08Z"/>
        </g>
        <path class="cls-11" d="m20.98,22.54c-1.46.37-2.04.66-2.66,2.03-.25.56-.65,1.19-1.32,1.34-1.27.28-2.89,0-3.44-1.38-.61-1.52-.66-2.14-2.3-2.85-.48-.21-.9-.43-1.27-.68-.06.09-.13.19-.21.28-.43.48-.62.81-.7,1.22.85,1.94,2.6,3.87,4.06,5.15,1.78,1.55,1.88,1.38,2.4,2.35,0,0,1.39-1.46,2.57-2.12,1.32-.75,3.45-2.82,4.6-5.18-.14-.2-.28-.41-.39-.65-.42.21-.87.37-1.33.49Z"/>
        <g>
          <path class="cls-6" d="m17.3,19.4s.09-1.6.92-1.63c.83-.04,1.23.49,1.69.39-.02,0-.07.12-.08.13-.08.11-.16.22-.26.31-.3.29-.68.6-1.09.52-.86-.16-1,.33-1.17.28Z"/>
          <path class="cls-2" d="m19.05,18.32c.04.34-.2.66-.54.7-.34.04-.66-.2-.7-.54-.04-.34.2-.66.54-.7.34-.04.66.2.7.54Z"/>
          <path class="cls-6" d="m18.73,18.36c.02.17-.1.32-.26.34-.17.02-.32-.1-.34-.26-.02-.17.1-.32.26-.34.17-.02.32.1.34.26Z"/>
          <path class="cls-8" d="m18.83,18.02c.01.11-.06.2-.17.22-.11.01-.2-.06-.22-.17-.01-.11.06-.2.17-.22.11-.01.2.06.22.17Z"/>
        </g>
        <g>
          <path class="cls-6" d="m14.85,19.42s-.06-1.6-.89-1.65c-.83-.05-1.24.47-1.7.36.02,0,.07.12.08.14.07.11.16.22.25.32.29.3.67.61,1.08.54.87-.15.99.35,1.17.3Z"/>
          <path class="cls-2" d="m14.45,18.51c-.05.34-.37.58-.71.53-.34-.05-.58-.37-.53-.71.05-.34.37-.58.71-.53s.58.37.53.71Z"/>
          <path class="cls-6" d="m14.13,18.46c-.02.17-.18.28-.34.26-.17-.02-.28-.18-.26-.34.02-.17.18-.28.34-.26.17.02.28.18.26.34Z"/>
          <path class="cls-8" d="m14.31,18.16c-.02.11-.11.18-.22.16-.11-.02-.18-.11-.16-.22.02-.11.11-.18.22-.16.11.02.18.11.16.22Z"/>
        </g>
        <path class="cls-7" d="m16.79,19.49c-.37-.29-.89-.28-1.25.02-.82.69-2.16,1.93-2.27,2.73-.17,1.15.41,2.53,2.76,1.67,0,0,2.23.97,2.83-.69.5-1.38-.95-2.82-2.07-3.72Z"/>
        <path class="cls-6" d="m15.99,23.74s0-.01,0-.02c0,0,0,0-.02,0-.01,0-.02,0-.02,0,0,0,0,.01,0,.02-.24.11-1.76.95-2.4-.55,0,0,0,1.18,1.3,1.23.84.04,1.06-.11,1.12-.27.06.16.28.31,1.12.27,1.29-.06,1.3-1.23,1.3-1.23-.64,1.51-2.16.67-2.4.55Z"/>
        <path class="cls-6" d="m15.89,23.89s-1.52-.65-1.38-1.59c.14-.94,1.28-.83,1.53-.81.24.02,1.57.21,1.39,1.02-.18.81-1.01,1.25-1.53,1.39Z"/>
      </g>
    </g>
  </g>
</svg>