<?xml version="1.0" encoding="UTF-8"?>
<svg id="Layer_1" data-name="Layer 1" xmlns="http://www.w3.org/2000/svg" viewBox="0 0 64 64">
  <defs>
    <style>
      .cls-1 {
        fill: #1e0d0e;
      }

      .cls-2 {
        fill: #d0cabd;
      }

      .cls-3 {
        fill: #c19b6b;
      }

      .cls-4 {
        fill: #eae8e3;
      }

      .cls-5 {
        fill: #b47542;
      }

      .cls-6 {
        fill: #38271f;
      }
    </style>
  </defs>
  <path class="cls-2" d="m14.92,45.19l1.35,2.03-.04,4.65h3.63s.04-.96-1.17-1.15l.58-3.4s2.38-1.87,3.01-2.86l-.13.83s4.37-3.71,4.15-8.58c0,0-.36-3.8-3.27-2.6-2.92,1.21-8.1,11.09-8.1,11.09Z"/>
  <path class="cls-2" d="m46.15,42.27s-.19,4.87,0,6.94l.19,2.06s1.52.36,1.84,1.7h-3.72l-1.35-9.19,3.04-1.51Z"/>
  <path class="cls-5" d="m34.08,21.11s-1.78,1.72-3.44,1.45-7.71-2.37-11.53-1.45-9.02,3.36-10,7.01l.67-.62s-1.48,2.33-1.75,7.09l.54-.99s-1.17,2.42-.18,6.95l.4-.97s-.09,2.86,1.7,5.68l-.09-.9,1.35,2.87-.04,6.56h3.63s.04-1.35-1.17-1.62l.58-4.8s2.38-2.65,3.01-4.04l-.13,1.17s3.85-2.38,4.48-4.57v1.44s2.15-2.78,2.69-4.84c0,0,.85,3.23,2.47,5.29.13-.72.54-2.23.54-2.23,0,0,.81,1.33,3.18,2.32s3.95-.09,3.95-.09v1.66s1.26-.7,1.52-1.9c.4.55,0,2.53,0,2.53l1.35-2.24s-1.26,3.72-.72,5.79l.36-1.03s-.63,2.38.36,4.53l.22-.8s.04,1.61,1.17,2.69c0,0,.04-.49,1.26-1.48s1.35-.27,1.35-.27l.18,2.52h3.86s-.31-1.53-1.39-1.71l-.36-7.49s5.92-5.02,4.57-12.38c-1.35-7.36-14.59-11.1-14.59-11.1Z"/>
  <path class="cls-5" d="m45.62,11.67s2.29-.13,3.18.9,1.52,3.27,1.52,3.27l4.17,2.42s-.31,2.15-1.52,2.33c0,0-.22.76-1.3,1.12-1.66.56-5.7-.99-5.7-.99,0,0-3.18-1.03-.36-9.06Z"/>
  <path class="cls-4" d="m53.02,21.48c-.15-.07-.31-.14-.48-.2-.03.02-.07.05-.11.08.23.79.23,1.8.23,2.56-.81-.27-1.35-1.08-1.88-1.61.81,3.77.81,7.27.27,11.03-.54-.54-.54-1.35-1.35-1.88-.27.54,0,1.61-.27,1.35-3.23-1.88-4.04-6.19-6.73-8.61.54,1.61.54,3.23,1.08,4.84-2.69-2.15-2.69-5.92-4.57-8.61,0,1.35-.81,2.69-.81,4.04-1.2-1.74-1.68-3.87-1.58-6.01-.19.09-2.73,1.3-2.99,3.63-.27,2.42.79,4.75,1.02,4.75s0-1.48,0-1.48c0,0,1.13,2.02,2.88,3.23l-.04-1.39s1.79,3.01,4.89,4.53l-.22-.81s2.43.67,3.27,3.41c.72,2.33.9,4.57.04,7.45s-1.57,2.83-1.57,2.83l.19,4s5.06-4.62,6.76-10.77v.72l2.38-3.68v.85s1.73-1.06,1.79-3.45c0-.07,0-.15,0-.22-.04-2.56.49.72.49.72,0,0,.9-1.52-.49-5.88-.98-3.08-1.81-4.7-2.21-5.39Z"/>
  <path class="cls-4" d="m36.86,17.85c.03-.35.08-.7.14-1.05-.06.32-.11.67-.14,1.05Z"/>
  <path class="cls-4" d="m52.76,21.07s-.07.09-.22.21c.16.06.32.13.48.2-.16-.28-.26-.41-.26-.41Z"/>
  <path class="cls-3" d="m38.4,24.46c0-1.35.81-2.69.81-4.04,1.88,2.69,1.88,6.46,4.57,8.61-.54-1.61-.54-3.23-1.08-4.84,2.69,2.42,3.5,6.73,6.73,8.61.27.27,0-.81.27-1.35.81.54.81,1.35,1.35,1.88.54-3.77.54-7.27-.27-11.03.54.54,1.08,1.35,1.88,1.61,0-.77,0-1.77-.23-2.56-.46.31-1.47.69-3.24.09-2.54-1.88-4.3-4.75-4.3-4.75,0,0,1.67-2.98,1.49-5.04,0,0-.72-2.73-3.81-.62-2.68,1.82-4.95,2.64-5.57,5.76-.06.35-.11.7-.14,1.05-.01.19-.03.39-.03.6,0,0,0,0-.01,0-.09,2.14.38,4.27,1.58,6.01Z"/>
  <path class="cls-5" d="m46.84,11.73s.62-1.79,2.41-1.48.94,1.79.94,1.79c0,0-1.24.02-1.11.91l-2.24-1.21Z"/>
  <path class="cls-5" d="m45.85,11.66c.13.19-1.72-.71-2.2-.85s-1.98,3.09-.27,5.16,2.47-4.31,2.47-4.31Z"/>
  <path class="cls-6" d="m21.85,41.14s2.74-3.18,1.08-6.55-7.8-4.17-10.41-2.85-3.27,3.82-3.27,3.82c0,0-.59-5.11,3.43-8.72-.1.88-.2,1.76-.31,2.63-.03.27-.02.61.24.7.82-1.43,1.84-2.75,3.02-3.9-.25.92-.5,1.85-.76,2.77.7-1.32,1.7-2.49,2.89-3.39-.46.98-.83,2-1.11,3.05.9-1.18,1.85-2.4,3.18-3.06-.53.96-.92,1.99-1.16,3.07.92-1.19,2.04-2.23,3.3-3.07-.28.83-.56,1.67-.83,2.5-.21.62-.42,1.27-.36,1.92.75-1.23,1.8-2.28,3.03-3.02-.28,1.17-.45,2.36-.51,3.56.64-.97,1.41-1.86,2.26-2.64-.22,1.91,0,3.86.62,5.68.35-1.4.85-2.76,1.49-4.06.19,2.05.67,4.06,1.41,5.98l.97-5.3c1.41,2.14,2.61,4.41,3.6,6.78.28-2.22.28-4.49-.02-6.71,1.33,1.61,2.31,3.48,3.29,5.33.07-2.36-.83-4.63-1.72-6.81,1.84,1.81,3.77,3.79,4.26,6.32.34,1.75.25,3.77-.82,5.2-1.18,1.57-2.18,1.19-2.18,1.19-.27,1.2-1.52,1.9-1.52,1.9v-1.66s-1.57,1.08-3.95.09-3.18-2.32-3.18-2.32c0,0-.4,1.51-.54,2.23-1.61-2.06-2.47-5.29-2.47-5.29-.54,2.06-2.69,4.84-2.69,4.84"/>
  <path class="cls-4" d="m45.85,53.79h-3.86l-.18-2.52s-.13-.72-1.35.27-1.26,1.48-1.26,1.48c-1.12-1.08-1.17-2.69-1.17-2.69l-.22.8c-.99-2.15-.36-4.53-.36-4.53l-.36,1.03c-.54-2.06.72-5.79.72-5.79,0,0-.31,2.56.27,3.54.36-1.75,2.33-5.43,2.33-5.43,0,0-1.03,3.99-.49,5.65.94-2.11,2.83-4.08,2.83-4.08,0,0-1.44,3.18-.85,4.62,1.28-1.87,2.65-2.51,2.65-2.51,0,0-1.12,2.69-1.21,5.2s.49,3.56,2.51,4.94Z"/>
  <path class="cls-4" d="m14.77,47.37l-.58,4.8c1.21.27,1.17,1.62,1.17,1.62h-3.63v-2.43s2.58-1.22,3.05-3.99Z"/>
  <path class="cls-6" d="m45.85,11.66s.82,2.56,0,4.4-1.78,1.52-1.63,3.36,2.75,1.7,3.96,3.36,1.08,7.13,1.08,7.13c0,0-.76-2.69-1.66-3.63.22.54.58,3.12.58,3.12,0,0-.75-3.53-2.33-5.14,1.2,2.02.99,4.2.99,4.2,0,0-1.09-4.43-3.24-6.4s-.49-4.66-.49-4.66c0,0-1.71,1.65-.61,4.32,0,0-1.68-3.58.61-5.63s2.74-4.45,2.74-4.45Z"/>
  <path class="cls-6" d="m47.19,15.97s.75-.47,1.03-.49.52.59.52.59c0,0-1.09-.15-1.55-.1Z"/>
  <path class="cls-6" d="m53.54,17.58s-1.17.41-1.23.88,1.26,1.09,1.26,1.09c.54-.28.98-.58.99-1.33l-1.02-.63Z"/>
  <path class="cls-1" d="m53.46,19.49s.62-.44.41-.75-.79-.01-.72.14.36.14.36.14l-.05.47Z"/>
  <path class="cls-6" d="m53.42,19.46s-.11.74-.72,1.07-2.31-.16-2.8-.49c-.71-.48-1.57-.44-1.33.2s.81-.08,1.16,0,2.28,1.2,3.14.47.7-1.18.7-1.18l-.16-.08Z"/>
</svg>