<?xml version="1.0" encoding="UTF-8"?>
<svg id="Layer_1" data-name="Layer 1" xmlns="http://www.w3.org/2000/svg" viewBox="0 0 64 64">
  <defs>
    <style>
      .cls-1 {
        fill: #45352c;
      }

      .cls-2 {
        fill: #9e6327;
      }

      .cls-3 {
        fill: #2a1c14;
      }

      .cls-4 {
        fill: #c39a75;
      }

      .cls-5 {
        fill: #734a1d;
      }

      .cls-6 {
        fill: #bdaca4;
      }

      .cls-7 {
        fill: #eedbd0;
      }
    </style>
  </defs>
  <path class="cls-6" d="m8.42,44.15c-.24.18-.54-.12-.36-.36.87-1.17,2.11-3.03,2.63-4.67.85-2.66,1.06-9.72,7.09-10.66,0,0-3.58,11.36-9.35,15.69Z"/>
  <path class="cls-6" d="m14.07,39.84s1.57,1.93,1.75,3.14c.18,1.21.3,3.18.3,3.18h4.41s0-2.04-1.75-2.46c0,0-.66-3.75.66-4.41l-5.38.54Z"/>
  <path class="cls-6" d="m46.37,38.95l.34,7.32h5.2s.24-2.28-2.05-2.34c0,0,1.35-4.92,1.17-6.86l-4.65,1.87Z"/>
  <path class="cls-7" d="m49.23,16.64c-1.2.12-2.96,1.03-3.69,2.6-.72,1.57-2.42,5.91-2.78,6.37-.36.46-1.33.22-1.87.34-.54.12-1.21,1.39-1.51,1.57-.3.18-1.09-.18-1.69,0-.6.18-1.09.85-2.24,1.03-1.15.18-14.62-.72-16.31-.54-1.69.18-4.83,2.54-5.8,5.01s-2.66,8.04-2.66,8.04c0,0,1.57,1.93,1.75,3.14.18,1.21.3,3.18.3,3.18h4.41s0-2.04-1.75-2.46c0,0-.66-3.75.66-4.41,1.33-.66,3.32-.12,4.83-1.15,0,0,7.97,1.35,9.55,1.97s6.88,2.62,6.88,2.62c0,0,9.62-.72,12.76-3.87s1.45-7.66,1.45-7.66c0,0,.97-.11,1.69-1.42.73-1.31-.42-4.69,0-6.02.42-1.33.85-3.69.85-3.69,0,0-1.27-.91-1.21-1.87l.06-.97s-1.81-1.99-3.69-1.81Z"/>
  <path class="cls-7" d="m40.53,40.99l2.96,6.39h5.2s.24-2.28-2.05-2.34c0,0-1.27-3.99-1.45-5.92l-4.65,1.87Z"/>
  <path class="cls-3" d="m41.61,38.32c.41-.82.27-2.18-.68-2.46-1.5-.55-3.82-1.36-2.87-3,1.09-1.64,2.59-3.14,1.36-5.18-.03-.05-.05-.1-.07-.15-.32.15-1.08-.19-1.66-.01-.6.18-1.09.85-2.24,1.03-.47.07-2.98-.03-5.9-.17-1.94.33-3.78.91-4.59,2.45-.41.82-.41,2.32-1.91,2.18.32-1.72-.11-3.35-.52-4.96-1.66-.06-2.95-.09-3.4-.05-1.69.18-4.83,2.54-5.8,5.01-.9,2.29-2.41,7.23-2.63,7.95,2.37,0,3.95-2.13,6.34-2.64.68-.14,1.5.14,2.18-.14,1.09-.55,1.91-1.5,2.32-2.59.26,1.54.84,3.03,1.81,4.2,2.48.45,6.08,1.14,7.08,1.54.14.06.31.12.5.2-.51-.47-.92-1-.66-1.7.55-1.23,2.59-1.77,3.68-.82,1.87,1.57,3.24,3.71,5.28,4.73.51-.07,1.1-.15,1.74-.26-1.72-1.49-.17-3.58.62-5.15Z"/>
  <path class="cls-5" d="m53.41,20.85s1.09.42,1.3.96c.2.55-.51,5.59,0,7.09.51,1.5,1.47,3.14,1.26,3.41-.2.27-3.26-.24-3.87-2.93s1.31-8.54,1.31-8.54Z"/>
  <path class="cls-7" d="m54.07,21.29s-1.27-.91-1.21-1.87l.06-.97s-1.81-1.99-3.69-1.81c-1.2.12-2.96,1.03-3.69,2.6-.19.41-.44,1-.72,1.66.11.14.22.27.33.38,1.36,2.73,1.78,7.07,5.06,8.03,1.89.52,2.6-.92,2.96-2.61-.07-.69-.09-1.3.04-1.71.42-1.33.85-3.69.85-3.69Z"/>
  <path class="cls-4" d="m53.18,26.69c.15,1.52.54,3.41.04,4.31-.72,1.31-1.69,1.42-1.69,1.42,0,0,0,.01,0,.03-1.41.14-2.86-.8-3.65-1.9-2.04-2.68-3.13-5.72-3.37-8.89.11-.26.21-.51.32-.76.11.14.22.27.33.38l3.47,6.98s.49.64.82.66c.33.02,1-1.96,1.22-2.23.22-.27.5-.54.75-.25.25.29.5,1.93.73,2.25.24.32.88-.85,1.02-1.99Z"/>
  <path class="cls-2" d="m18.69,37.57c2.46-1.77,3.82-6.14,1.09-8.19-.73-.63-1.71-.85-2.68-.55-1.5.94-3.11,2.53-3.75,4.18-.9,2.29-2.41,7.23-2.63,7.95,2.37,0,3.95-2.13,6.34-2.64.68-.14,1.5.14,2.18-.14.41-.2.78-.47,1.11-.77-.51.24-1.08.32-1.65.15Z"/>
  <path class="cls-2" d="m24.15,34.16c-.48,1.21-1.4,1.99-2.27,2.82.32,1.03.81,2,1.48,2.81,1.2.22,2.65.49,3.95.76-1.75-1.75-3.01-3.92-3.17-6.39Z"/>
  <path class="cls-2" d="m40.93,35.87c-1.5-.55-3.82-1.36-2.87-3,.91-1.37,2.11-2.65,1.76-4.23-.03,1.58-1.9,2.56-2.85,3.75-1.36,1.5,0,3,1.5,4.09,1.09.82,0,2.18-.55,3.14-.14.27,0,.68,0,.96-1.23-1.91-4.23-4.09-6.14-2.18-.12.11-.22.23-.3.35.82-.34,1.82-.31,2.48.27,1.87,1.57,3.24,3.71,5.28,4.73.51-.07,1.1-.15,1.74-.26-1.72-1.49-.17-3.58.62-5.15.41-.82.27-2.18-.68-2.46Z"/>
  <path class="cls-2" d="m53.2,25.06s.01-.06.02-.09c.42-1.33.85-3.69.85-3.69,0,0-1.27-.91-1.21-1.87l.06-.97s-1.53-1.68-3.23-1.81c.72,1.28,1.18,4.21,1.18,4.21,1.75.44,1.92,2.52,2.33,4.21Z"/>
  <path class="cls-2" d="m45.55,19.24c-.26.57-.65,1.5-1.06,2.49-.17,3.13,1.38,6.3,4.63,7.19-1.64-1.91-1.5-3.91-1.09-6.09,0-.55,1.64-1.82,1.64-1.82-.23-1.41-.37-2.92-.92-4.27-1.15.28-2.56,1.15-3.19,2.51Z"/>
  <path class="cls-3" d="m47.8,18.31s-1.13.36-1.43,1.09c-.3.73,0,2.23,0,2.23,0,0,.11-1.86.88-2.18.77-.32.55-1.14.55-1.14Z"/>
  <path class="cls-3" d="m47.72,20.18c0,.19-.15.34-.34.34s-.34-.15-.34-.34.15-.34.34-.34.34.15.34.34Z"/>
  <path class="cls-3" d="m51.34,18.27s1.13.36,1.43,1.09c.3.73,0,2.23,0,2.23,0,0-.11-1.86-.88-2.18-.77-.32-.55-1.14-.55-1.14Z"/>
  <path class="cls-3" d="m51.42,20.14c0,.19.15.34.34.34s.34-.15.34-.34-.15-.34-.34-.34-.34.15-.34.34Z"/>
  <path class="cls-3" d="m52.15,28.68c-.17-.16-.35-2.19-.77-2.49l-.08-1.75s.96-.94,1.01-1.62c.05-.69-1.16-1.58-1.94-1.58-.48,0-1.43,1.15-1.4,1.58s1.91,1.62,1.91,1.62v1.71s-.49.87-1.02,2.29c-.13.19-.26.33-.37.34-.35.02-.96-.66-.96-.66,0,0,.49.79.91.8.31,0,.71-.87.9-1.32.28-.5.54-1.09.78-1.19.45-.19.83,2.43,1.05,2.42.17,0,.45-.4.62-.8-.23.4-.48.82-.65.65Zm-2.1-.55c.05-.09.1-.19.16-.3-.05.1-.1.2-.16.3Z"/>
  <path class="cls-1" d="m50.51,22.63c-.51-.07-.95.22-.85.61.09.4.55.37.55.37l.23.53c.1.07.18.12.25.17.08-.54.2-1.63-.19-1.68Z"/>
  <path class="cls-1" d="m51.49,22.63c-.37.05-.23,1.29-.15,1.78.04-.04.1-.11.19-.2l.23-.59s.13,0,.26-.06c.1-.16.19-.33.24-.49-.04-.3-.38-.5-.78-.44Z"/>
  <path class="cls-5" d="m45.64,19.06s-.65,1.87-1.5,2.18c-.85.31-1.44,3.18-1.52,4.51-.08,1.33.09,5.98,1.69,7.27s1.36,2.65,2.06,2.58c.7-.07,2.2-3.85,2.17-6.04-.03-2.18-1.67-4.98-2.17-6.45-.49-1.47-.73-4.05-.73-4.05Z"/>
</svg>