<?xml version="1.0" encoding="UTF-8"?>
<svg xmlns="http://www.w3.org/2000/svg" viewBox="0 0 64 64">
  <defs>
    <style>
      .cls-1 {
        opacity: .55;
      }

      .cls-1, .cls-2, .cls-3 {
        mix-blend-mode: multiply;
      }

      .cls-1, .cls-4 {
        fill: #e4dacf;
      }

      .cls-2 {
        fill: #e5dcd1;
        opacity: .45;
      }

      .cls-3 {
        fill: #d9cdc0;
        opacity: .32;
      }

      .cls-5 {
        fill: #10130d;
      }

      .cls-6 {
        isolation: isolate;
      }

      .cls-7 {
        fill: #3e3935;
      }

      .cls-8 {
        fill: #cfc3b0;
      }

      .cls-9 {
        fill: #e9e8e8;
      }

      .cls-10 {
        fill: #0c0f0b;
      }

      .cls-11 {
        fill: #564f47;
      }

      .cls-12 {
        fill: #d6c8bc;
      }
    </style>
  </defs>
  <g class="cls-6">
    <g id="Layer_1" data-name="Layer 1">
      <g>
        <path class="cls-8" d="m53.89,42.62s-4.77-1.38-2.95-6.25c.63-1.69.94-3.13,1.08-4.28h-9.72v4.34c4.84,7.67,8.75,7.68,9.05,8.74.3,1.07-.26,2.44-.69,2.46s-1.69-.46-1.99.68c-.3,1.14,1.06,1.36,1.06,1.36,5.94,0,4.16-7.05,4.16-7.05Z"/>
        <path class="cls-8" d="m20.37,45.15s-.19-6.16-1.45-10c-1.26-3.84.31-8.08,4.96-7.33s.49,8.02,0,11.5c-.49,3.48-.68,4.24-.94,5.03-.23.7-1.15,4.22-2.69,5.02-.2.1-2.14.09-2.55-.11-.5-.23-.67-.64-.54-1.28.23-1.17,1.44-.76,1.89-.91s1.26-1.21,1.33-1.93Z"/>
        <g>
          <path class="cls-4" d="m22.88,18.17s2.16,3.48,3.83,4.16,7.79.61,11.88,0,13.31-2.19,15.2,6.58c0,0,.83,2.87-.98,7.94-1.29,3.61.75,5.38,2.04,6.1.62.35,1.04.97,1.11,1.68.17,1.77-.05,5.59-2.31,5.99-.48.09-.98.07-1.46.08-.45,0-.91-.03-1.28-.31-.36-.26-.46-.68-.36-1.11.3-1.19,1.56-.68,1.99-.71.43-.03.91-1.99.61-3.1s-4.14-.58-8.98-8.6c0,0-3.53,3.23-10.41,3.45s-10.97.45-15.66-2.72c-4.69-3.18-5.51-5.57-5.7-10.32-.16-3.97-.62-5.03-1.05-7.61-.43-2.57,10.14-2.19,11.55-1.51Z"/>
          <path class="cls-1" d="m24.05,26.35c1.04-1.18,1.77-2.5,2.37-3.9-1.76-.98-3.85-4.25-3.85-4.25-.59-.28-2.65-.51-4.94-.53-3.18.04-6.54.54-6.3,2.01.43,2.57.89,3.64,1.05,7.61,0,.15.02.28.02.42,1.16-.09,2.19-.08,2.88.07,3.19.69,6.3,1.34,8.75-1.43Z"/>
          <path class="cls-2" d="m44.04,35.19c-.37-.48-1.04-.68-2.18-.41-2.01.48-3.96,1.17-5.98,1.6-4.33.91-8.13,1.93-12.46.46-3.33-1.13-6.33-4.71-6.98-8.19-.68-3.67,0-7.25-1.56-10.4-.77.32-3.39.79-3.55,1.45h0c.43,2.57.89,3.64,1.05,7.61.19,4.75,1.01,7.15,5.7,10.32,4.69,3.18,8.77,2.95,15.66,2.72.86-.03,1.67-.1,2.42-.21.76-.11,1.46-.25,2.11-.42,1.3-.33,2.39-.76,3.26-1.18,1.74-.84,2.63-1.64,2.63-1.64,0,0,.24-1.22-.12-1.7Z"/>
        </g>
        <path class="cls-4" d="m21.42,46.31s.08-6.07-1.18-9.91c-1.26-3.84.04-8.17,4.69-7.41,4.65.76.49,8.02,0,11.5-.49,3.48-.68,4.24-.94,5.03-.23.7-1.15,4.22-2.69,5.02-.2.1-2.14.09-2.55-.11-.5-.23-.67-.64-.54-1.28.23-1.17,1.44-.76,1.89-.91s1.26-1.21,1.33-1.93Z"/>
        <path class="cls-12" d="m52.69,25.97s2.14-.92,1.72-3.19-3.1-4.97-6.85-3.03c-3.74,1.95-2.5,6.73.49,7.07,2.99.34,4.31-3.56,1.8-4.05,0,0,.26.72-.45,1.05-.71.33-1.56-.83-.43-1.34,1.13-.5,2.63.04,2.28,1.68,0,0,1.17,1.25,1.43,1.8Z"/>
        <path class="cls-3" d="m49.49,20.76c-2.69.04-2.59,2.51-1.79,3.44.77.9,1.68.82,2.35.48.64-.33.73-1.46.56-1.58-.2-.15-.45-.26-.76-.32,0,0,.26.72-.45,1.05-.71.33-1.56-.83-.43-1.34s2.63.04,2.28,1.68c0,0,.19.2.43.47,1.73-1.77-.06-3.9-2.2-3.87Z"/>
        <g>
          <path class="cls-4" d="m18.2,13.38s-3.37-.25-4.79,1.12-3.4,3.58-2.44,6.66c.96,3.08,4.45,5.09,6.32,5.29,3.01.32,5.86-2.54,6.56-3.29.71-.75,3.16-4.4-.31-7.66-3.33-3.14-3.55-1.46-5.34-2.12Z"/>
          <path class="cls-7" d="m15.53,13.55s-.98-.41-2.2-.19c-1.22.23-3.03.12-3.53.06-.5-.06-1.53.72-1.78,2.36-.25,1.64,1.16,3.45,2.41,4.14,1.25.69.5-2.33,1.86-3.69s3.54-2.3,3.23-2.68Z"/>
          <path class="cls-7" d="m21.46,14.01s1.55.06,2.66.11c1.11.06,1.61-.28,2.05,0,.44.28,2.31,1.43,1,4.27-1.42,3.08-1.25,1.53-2.03.92s-2.35-1.8-2.87-2.97c-.53-1.17-1.24-2.58-.82-2.33Z"/>
          <g>
            <path class="cls-7" d="m20.6,19.56s-1.85-1.85-.55-3.18c.17-.18.47-.18.65,0,.51.49,1.56,1.48,2.31,1.99,1.03.69-.24,3.11-1.05,2.41-.81-.69-1.37-1.22-1.37-1.22Z"/>
            <path class="cls-11" d="m22.34,18.44c0,.56-.45,1.01-1.01,1.01s-1.01-.45-1.01-1.01.45-1.01,1.01-1.01,1.01.45,1.01,1.01Z"/>
            <path class="cls-10" d="m21.87,18.44c0,.29-.24.53-.53.53s-.53-.24-.53-.53.24-.53.53-.53.53.24.53.53Z"/>
            <path class="cls-9" d="m22.05,17.91c0,.19-.15.35-.35.35s-.35-.15-.35-.35.15-.35.35-.35.35.15.35.35Z"/>
          </g>
          <g>
            <path class="cls-7" d="m15.3,19.56s1.85-1.85.55-3.18c-.17-.18-.47-.18-.65,0-.51.49-1.56,1.48-2.31,1.99-1.03.69.24,3.11,1.05,2.41.81-.69,1.37-1.22,1.37-1.22Z"/>
            <path class="cls-11" d="m15.59,18.44c0,.56-.45,1.01-1.01,1.01s-1.01-.45-1.01-1.01.45-1.01,1.01-1.01,1.01.45,1.01,1.01Z"/>
            <path class="cls-10" d="m15.11,18.44c0,.29-.24.53-.53.53s-.53-.24-.53-.53.24-.53.53-.53.53.24.53.53Z"/>
            <circle class="cls-9" cx="14.94" cy="17.91" r=".35"/>
          </g>
          <g>
            <path class="cls-7" d="m20.45,18.94c-.81-.45-2.21-1.04-3.18-.82-1.49.34-3.39,1.91-4.11,2.8-.62.76-.65,2.24.32,3.74,1.3,1.05,2.79,1.69,3.8,1.8,1.85.2,3.64-.81,4.9-1.78.84-.65,1.24-1.75.91-2.77-.31-.94-1.03-2.07-2.65-2.97Z"/>
            <ellipse class="cls-5" cx="17.01" cy="19.95" rx=".43" ry=".64"/>
            <ellipse class="cls-5" cx="18.69" cy="19.95" rx=".43" ry=".64"/>
            <path class="cls-5" d="m13.55,23.67s1.39.08,2.53-.58,1.83-1.81,1.73-4.06c0,0,.05-.29.23,0,0,0-.29,3.21,1.21,4.06,1.5.85,2.73.69,2.73.69,0,0-.84.66-3.09-.09-.68-.23-1.42-.25-2.11-.08-.82.2-2.01.36-3.21.07Z"/>
          </g>
        </g>
      </g>
    </g>
  </g>
</svg>