<?xml version="1.0" encoding="UTF-8"?>
<svg id="Layer_1" data-name="Layer 1" xmlns="http://www.w3.org/2000/svg" viewBox="0 0 64 64">
  <defs>
    <style>
      .cls-1 {
        fill: #b8a98c;
      }

      .cls-2 {
        fill: #572d17;
      }

      .cls-3 {
        fill: #fae8be;
      }

      .cls-4 {
        fill: #010101;
      }
    </style>
  </defs>
  <path class="cls-1" d="m20.1,45l.54,3.19s-1.4-.47-2.18,1.87h4.35s1.17-7.3-2.72-5.05Z"/>
  <path class="cls-2" d="m14.21,19.15c.17.86.21,1.82-.26,2.57-.36.58-.98.96-1.33,1.54-.22.38-.31.83-.25,1.26.23-.41.66-.72,1.12-.8-.27.34-.3.82-.23,1.25.05.29.13.59.33.81.12.14.29.24.45.32.65.3,1.45.29,2.08-.05.79-.41,1.29-1.25,1.49-2.12.19-.87.11-1.78-.02-2.66l-3.39-2.11Z"/>
  <path class="cls-3" d="m8.29,14.15l4.27-1.24,1.24-1.55s1.71-1.32,5.36-.47c3.65.85,4.74,9.48,6.14,11.11,1.15,1.34,15.93,3.41,21.22,4.11,2.29-.09,4.58-.85,6.16-1.5.66-.27,1.22.56.72,1.07-.3.3-.65.59-1.05.83-1.29.76-2.79,2-3.46,2.57.33.42.72.81.89,1.31.33.95-.2,2.07.23,2.99.23.5.71.84,1.05,1.29.57.76.7,1.76.71,2.71.01.75,0,1.6.57,2.09.3.26.72.37,1.04.61.46.36.65.96.75,1.54s.15,1.18.44,1.69c.28.51.89.9,1.45.71-.56.24-1.16.21-1.76.06.78,1,1.37,1.64,1.37,1.64l-2.88,7.7h-4.2s-.16-2.03,1.87-2.34c0,0,1.09-2.41-.23-3.89-.1-.11-.24-.24-.39-.37.21.68.19,1.43-.08,2.09-.12-.58-.43-1.12-.86-1.53-.1.34-.2.68-.3,1.02-.43-.59-.86-1.18-1.29-1.76-.15.54-.13,1.12.07,1.64l-1.96-2.15c.02.44.04.89.06,1.33-.68-.86-1.31-1.75-1.91-2.67,0,.39-.08.78-.25,1.13-.29-.69-.57-1.38-.86-2.07-.28.34-.56.67-.84,1.01.24-.66.23-1.42-.03-2.07-.44.52-.97.97-1.56,1.3.52-.76.69-1.75.45-2.64-.21.36-.38.75-.51,1.14-.24-1.02-.72-1.98-1.4-2.78-.42.77-.53,1.7-.31,2.55-.23-.84-.59-1.64-1.06-2.38-.34.85-.46,1.79-.34,2.7-.26-.79-.79-1.48-1.49-1.92-.17.79-.35,1.59-.52,2.38-.33-.65-.76-1.24-1.29-1.75-.06.69-.2,1.38-.43,2.04-.3-.62-.55-1.25-.76-1.9-.35.76-.6,1.57-.75,2.4-.31-.63-.53-1.3-.67-1.99-.37.75-.67,1.54-.86,2.36-.57-1.03-1.24-2-1.99-2.9-.2,1.05-.1,2.15.29,3.14-.3-.47-.6-.95-.9-1.42.14,1.28.28,2.56.42,3.84.52,1.86,1.02,3.35,1.02,3.35l-4.2,3.12h-4.82s.93-1.8,2.41-2.03c0,0-.47-3.73-.54-5.36,0-.04,0-.07-.02-.11-.35-.18-.68-.39-.99-.64.16.45.26.93.28,1.41-.96-.6-1.81-1.39-2.47-2.32.24.66.36,1.35.38,2.05-1.16-1-2.07-2.29-2.63-3.72-.07.56-.14,1.12-.22,1.68-.79-1.02-1.41-2.16-1.83-3.38-.15.65-.29,1.31-.44,1.96-.55-1.39-.78-2.9-.69-4.39-.1-.16-.18-.32-.24-.47-.93-2.56-.62-3.89-.62-3.89,0,0,1.87-5.05,3.5-7.15l-.62-6.61s-1.32-1.01-2.02-.54c-.7.47-1.32,0-1.48-.7,0,0-2.1-.7-3.34-1.63,0,0-.16-1.55,0-3.42Z"/>
  <path class="cls-4" d="m39.34,41c-.23-.43-.5-.84-.81-1.21-.42.77-.53,1.7-.31,2.55-.23-.84-.59-1.64-1.06-2.38-.34.85-.46,1.79-.34,2.7-.26-.79-.79-1.48-1.49-1.92-.17.79-.35,1.59-.52,2.38-.33-.65-.76-1.24-1.29-1.75-.06.69-.2,1.38-.43,2.04-.3-.62-.55-1.25-.76-1.9-.35.76-.6,1.57-.75,2.4-.31-.63-.53-1.3-.67-1.99-.37.75-.67,1.54-.86,2.36-.57-1.03-1.24-2-1.99-2.9-.2,1.05-.1,2.15.29,3.14-.3-.47-.6-.95-.9-1.42.02.21.05.42.07.64-.29-.77-.4-1.61-.19-2.53.16-.47-.31-.93-.62-1.4-1.24-1.71-3.73-2.02-4.2-4.2-1.24-4.97,3.26-7.93,3.89-12.43.04-.2.04-.41,0-.61,3.75,1.3,15.53,2.94,20.12,3.55,2.29-.09,4.58-.85,6.16-1.5.66-.27,1.22.56.72,1.07-.3.3-.65.59-1.05.83-1.29.76-2.79,2-3.46,2.57.33.42.72.81.89,1.31.33.95-.2,2.07.23,2.99.23.5.71.84,1.05,1.29.57.76.7,1.76.71,2.71.01.75,0,1.6.57,2.09.3.26.72.37,1.04.61.46.36.65.96.75,1.54s.15,1.18.44,1.69c.28.51.89.9,1.45.71-.14.06-.28.1-.42.13,0,0-1.83.09-3.31-2.01s-3.26-3.34-3.26-3.34l1.17,2.33s-3.03-1.94-3.5-5.36c0,0-2.25.93-3.19,2.8,0,0-1.55,0-2.49-1.17,0,0-1.48,1.71-1.66,3.61Z"/>
  <path class="cls-2" d="m20.23,11.39c1.81,1.33,2.87,4.7,3.72,7.34-.05.39-.16.78-.36,1.17-.47,1.09-1.71,1.71-2.8,1.09,0,0-3.11-2.64-5.28-2.25-2.18.39-2.95-1.14-2.02-2.9l-1.09-.98c.1-1.11.76-2.15,1.76-3.15,1.13-.73,3-1.09,6.06-.31Z"/>
  <circle class="cls-4" cx="14.44" cy="13.72" r=".49"/>
  <path class="cls-4" d="m16.31,14.46s.02-1.47-.66-2.31c-.68-.84-1.21-.73-1.48-.44s-.22.95-.22.95c0,0,.56-.05.97.17s1.38,1.63,1.38,1.63Z"/>
  <path class="cls-4" d="m8.11,14.09s.73-.19,1.31,0c.58.19.44.97,0,1.41s-1.04.61-1.18,1.51c0,0-.45-2.04-.13-2.92Z"/>
  <path class="cls-4" d="m10.29,18.68s1.54.54,2.39.5c.85-.05.51.34.34.53-.17.19-.99.32-1.26-.36,0,0-.95-.43-1.47-.67Z"/>
  <path class="cls-4" d="m21.34,14.82c.37.63.41,1.45.11,2.12-.3.66-.92,1.18-1.03,1.9-.09.57.16,1.13.21,1.7.05.54-.09,1.08-.28,1.58-.11.29-.24.62-.09.89.13.23.4.32.64.45,1.14.61.46,2.58,2.05,3.11-.28.36-1.35.03-1.96-.75,0,0,.1,1.94-.55,1.91-.35-.02-.71-.08-1.04.02-.27.08-.49.27-.76.34-.37.09-.75-.05-1.1-.2-.4-.18-.8-.37-1.18-.59-.55-.31-1.11-.68-1.42-1.23-.45-.78-.32-1.75-.15-2.63.29-1.52.73-3.09,1.79-4.21.25-.27.54-.52.67-.86.23-.6-.13-1.3.05-1.92.17-.58.74-.93,1.09-1.42.45-.64.48-1.55.08-2.22,1.27.28,2.32.84,2.9,2.02Z"/>
  <path class="cls-2" d="m27.07,39.33c-.93-2.95-4.04-6.22-1.71-9.17.31,1.09.93,1.87,1.24,2.95,0-1.87.78-3.73,2.33-4.82-.93,2.64.31,5.13.78,7.62,0-1.24,0-2.49.31-3.73.78,1.24,1.55,2.33,1.71,3.89.62-1.09.16-2.49.93-3.57.47,1.09.93,2.33,1.24,3.42.31-1.55.93-3.42,2.49-4.2,0,.93.16,1.71,0,2.64,1.09-1.87,2.64-3.73,4.82-3.89.16,0,.31.78.16,1.09-1.58,2.86-2.89,5.99-1.99,9.14-.02.1-.03.2-.04.3-.23-.43-.5-.84-.81-1.21-.42.77-.53,1.7-.31,2.55-.23-.84-.59-1.64-1.06-2.38-.34.85-.46,1.79-.34,2.7-.26-.79-.79-1.48-1.49-1.92-.17.79-.35,1.59-.52,2.38-.33-.65-.76-1.24-1.29-1.75-.06.69-.2,1.38-.43,2.04-.3-.62-.55-1.25-.76-1.9-.35.76-.6,1.57-.75,2.4-.31-.63-.53-1.3-.67-1.99-.37.75-.67,1.54-.86,2.36-.57-1.03-1.24-2-1.99-2.9-.2,1.05-.1,2.15.29,3.14-1.83-1.52-2.05-2.92-1.28-5.18Z"/>
</svg>