<?xml version="1.0" encoding="UTF-8"?>
<svg id="Layer_1" data-name="Layer 1" xmlns="http://www.w3.org/2000/svg" viewBox="0 0 64 64">
  <defs>
    <style>
      .cls-1 {
        fill: #cdcbc6;
      }

      .cls-2 {
        fill: #533312;
      }

      .cls-3 {
        fill: #211a15;
      }

      .cls-4 {
        fill: #c1a191;
      }

      .cls-5 {
        fill: #dddbd3;
      }

      .cls-6 {
        fill: #392e2b;
      }

      .cls-7 {
        fill: #b99c7a;
      }
    </style>
  </defs>
  <path class="cls-1" d="m45.15,39.88s-2.85,2.85-2.41,5.91.88,5.26.88,5.26c0,0-.73,1.47-.22,3.21,0,0,2.12-.54,2.7,1.74h-5.55s.58-5.1,0-6.63c-.58-1.53-1.39-3.8-.37-9.93l4.96.44Z"/>
  <path class="cls-1" d="m18.65,40.68s1.46,2.41,0,4.45-3.43,3.14-3.43,3.14l2.92,7.73h3.87s.15-2.11-2.48-1.74c0,0-2.41-1.97-.91-4.53s5-1.97,6.75-6.21,0-9.07,0-9.07l-6.72,6.23Z"/>
  <path class="cls-1" d="m13.66,33.51s-1.15,5.86-2.83,8.2c-.91,1.27-1.85,2.94-2.51,4.19-.24.46.33.9.71.55,1.38-1.23,3.42-3.45,5.37-7.01,3.36-6.13-.75-5.93-.75-5.93Z"/>
  <path class="cls-4" d="m41.94,14.1s-2.56-3.43-4.23-4.89c-1.68-1.46-2.63-1.31-3.07-1.02s1.31,8.32,1.46,9.27,3.6,1.75,3.6,1.75l2.24-5.11Z"/>
  <path class="cls-4" d="m48.36,14.9s2.56-3.43,4.23-4.89,2.63-1.31,3.07-1.02-1.31,8.32-1.46,9.27-3.6,1.75-3.6,1.75l-2.24-5.11Z"/>
  <path class="cls-1" d="m47.21,33.51c-1.17,0-1.43,2.14-2.85,3.3,0-1.17-.33-3.32-.91-4.49-2.09,6.27-9.41,8.94-15,8.6.8.27,1.59.58,2.32.93,3.8,1.83,5.18,2.56,9.05,2.34,2.82-.16,5.82-3.3,7.47-7.56-.19-.42.34-2.79-.08-3.11Z"/>
  <path class="cls-5" d="m45.59,12.92c-2.62-.19-6.35,1.46-7.52,5.69-1.17,4.23-1.24,5.02-1.24,5.02,0,0-5.99,2.13-11.46,2.71-5.48.58-10.08,1.31-12.19,8.62,0,0-.44,5.55,0,9.42,0,0-.07,2.19-2.19,3.43l-.88,8.18h4.38s-.07-2.56-2.56-2.34c0,0,.22-4.23,2.92-6.5,2.7-2.26,6.5-7.89,6.5-7.89,0,0,3.69.48,7.1,1.63,5.58.35,12.35-.31,14.44-6.58.58,1.17.58,2.34.58,3.5,1.75,0,1.75-2.34,2.92-2.34.42.32.71.7.9,1.11.62-1.59,1.05-3.33,1.21-5.14.58-6.64,2.41-9.2,2.63-13.07s-2.56-5.26-5.55-5.48Z"/>
  <path class="cls-5" d="m39.69,38.73s-4.55,3.99-4.11,7.06c.44,3.07.88,5.26.88,5.26,0,0-.73,1.47-.22,3.21,0,0,2.12-.54,2.7,1.74h-5.55s.58-5.1,0-6.63c-.58-1.53-1.39-3.8-.37-9.93l6.66-.71Z"/>
  <path class="cls-7" d="m45.59,12.92s-.95,2.08-2.36,2.96c1.27,1.17,1.18,2.63,1.18,2.63,0,0-3.52,1.75-3.57,4.96,0,0-1.91-.31-1.9-2.39s-.69-3.26-.69-3.26c0,0,1.76-5.09,7.34-4.9Z"/>
  <path class="cls-7" d="m46.29,12.91s.83,1.46,1.8,2.29,1.4,1.07,1.4,1.07c0,0-1.27-.19-1.6,1.17s1.54,2.77,1.6,3.36-.77,1.9-.77,1.9c0,0,.39,0,.24.78s-1.9,1.22-1.9,1.22c0,0,.39,1.08,2.26,1.56,0,0,1.56-4.92,1.81-7.31s.11-5.36-4.86-6.04Z"/>
  <path class="cls-3" d="m46.97,20.99s-.34,1.17-1.75,1.75-2.63,0-2.63,0c0,0,1.23,1.07,4.04-.24,0,0,.89.58,2.12.66,0,0-1.11-.41-1.54-1.08s-.24-1.08-.24-1.08Z"/>
  <path class="cls-7" d="m25.36,26.36c-2.02.22-3.92.45-5.63,1.03-1.22,1.17-1.39,3.01.32,3.92,1.7.92,4.29-2.22,7.28-5.22-.66.11-1.32.2-1.97.27Z"/>
  <path class="cls-7" d="m31.4,40.01c3.55-1.06.38-10.94,2.59-15.47-1.52.44-3.51.96-5.59,1.36-2.28,3.93-.55,15.18,3.01,14.11Z"/>
  <path class="cls-3" d="m46.74,20.98s-1.06-.87-1.15-1.2.29-.71,1.32-.74,1.37.3,1.47.65-1.02,1.28-1.02,1.28h-.63Z"/>
  <path class="cls-6" d="m46.74,19.7c-.08-.25-.79-.25-.79,0s.41.31.41.31l.13.76c.14.13.25.21.25.21h.01c.02-.4.04-1.11-.01-1.28Z"/>
  <path class="cls-6" d="m48.04,19.7c0-.25-.71-.25-.79,0-.06.17-.03.88-.01,1.28h.14s.04-.03.1-.08l.15-.88s.41-.07.41-.31Z"/>
  <circle class="cls-2" cx="42.31" cy="18.08" r="1.13"/>
  <circle class="cls-2" cx="49.49" cy="18.08" r="1.13"/>
</svg>