<?xml version="1.0" encoding="UTF-8"?>
<svg id="Layer_1" data-name="Layer 1" xmlns="http://www.w3.org/2000/svg" viewBox="0 0 64 64">
  <defs>
    <style>
      .cls-1 {
        fill: #0a0d0c;
      }

      .cls-2 {
        fill: #d6b76d;
      }

      .cls-3 {
        fill: #e6ca8c;
      }

      .cls-4 {
        fill: #d4ac4c;
      }

      .cls-5 {
        fill: #c98c2d;
      }

      .cls-6 {
        fill: #7a491d;
      }

      .cls-7 {
        fill: #9e8036;
      }

      .cls-8 {
        fill: #272828;
      }
    </style>
  </defs>
  <path class="cls-3" d="m45.23,25.49s.71,1.89,1.66,2.56c.95.66,5.01.28,7.15-2.14,0,0-1.04.31-2.05.44,0,0,2.87-1.29,3.78-3.06,0,0-1.29.66-1.83.79,0,0,1.73-2.08,2.05-4.03,0,0-.82.93-1.1,1.21,0,0,1.17-3.53-.31-5.16l-.19,1.46c-1.83-2.15-3.75-1.57-4.84-.8-.35.25-.07.79.33.66.77-.23,1.94-.21,2.44.6.83,1.36.4,3.18-1.55,5.09s-5.54,2.37-5.54,2.37l-.91.92"/>
  <path class="cls-7" d="m45.06,41.6l.35,1.44s-1.67.27-1.86,1.63h3.22s.9-2.69-1.71-3.07Z"/>
  <path class="cls-7" d="m27.62,38.1s-2.21,4.58-1.59,8.24h-4.2s-.16-1.75,1.59-2.02c0,0,.43-4.74-1.32-6.99l5.52.78Z"/>
  <path class="cls-4" d="m18.2,15.88s3.43,6.15,6.32,7.24c2.89,1.09,14.19,1.32,17.86,1.67s5.59,2.16,5.89,4.55c.29,2.39,0,10.55,0,10.55l1.75,2.1-1.52,6.59-4.31.02s-.17-1.83,1.57-2.06c0,0,1.57-2.45,0-3.73-1.57-1.28-5.65-1.63-7.52-5.24,0,0-7.87-.35-10.14.7-2.27,1.05-3.21,5.24-3.59,7.28-.38,2.04-.32,3.05-.32,3.05l-4.55-.02s0-1.4,1.78-1.69c0,0,1.31-4.66,1.19-6.12s-5.94-3.79-7.81-7.46l-.76-9.85s-4.66-.76-5.13-1.17c-.47-.41,0-.64,0-.64l-.93-2.1,3.26-1.46.29-2.33c2.22-.49,4.43-.49,6.64.12Z"/>
  <circle class="cls-8" cx="13.2" cy="18.03" r=".4"/>
  <path class="cls-6" d="m15.19,18.03s-.82-1.41-1.59-1.6c-.78-.19-1.28.97-1.28.97,0,0,1.44-.37,2.87.63Z"/>
  <path class="cls-1" d="m8,19.55s.66-.52,2-.45c0,0-.25,1.4-1.07,2.54,0,0-.82.14-.93-2.1Z"/>
  <path class="cls-1" d="m13.75,22.56s-.66-.58-1.83-.58-2.48.07-3.15-.72l.16.39s.51.52,1.71.52,3.11.39,3.11.39Z"/>
  <path class="cls-5" d="m13.47,23.35c2.51-.15,3.62-3.45,3.62-5.73.62.76,1.54.7,2.49.48,1.03,1.53,2.51,3.46,3.96,4.48.66,3.82-2.34,7.75-5.99,8.79,1.05-.93,1.63-2.33,1.75-3.73-.58,1.4-1.75,2.21-3.03,2.8.7-1.4.58-3.03.12-4.43-.97,1.09-1.52,2.37-1.85,3.73l-.48-6.29s-.23-.04-.59-.1Z"/>
  <path class="cls-3" d="m12.6,18.91c.37-.18,2.98.32,3.4.64s-.08,1.77-1.53,3.01c0,0-.95-1-1.67-1.41s-1.42-1.63-.19-2.24Z"/>
  <path class="cls-2" d="m41.86,31.08c-2.16.76-4.2,2.92-3.61,6.48.58,3.55,6.08,4.45,6.08,4.45,0,0-1.18-.55-1.42-.96,0,0,1.92.92,2.8.96,0,0-3.09-1.83-3.32-2.82-.23-.99-.87-4.19,1.46-5.77s.17-3.1-1.98-2.34Z"/>
  <path class="cls-2" d="m22.69,47.7c.47-2.45-.58-5.71,1.4-7.11.67-.48.79,1.65.81,3.19-.16.66-.29,1.27-.38,1.76-.38,2.04-.32,3.05-.32,3.05l-4.55-.02s0-.03,0-.07c.04-.07.08-.15.11-.22.47-1.05,1.86-1.05,2.91-.58Z"/>
  <path class="cls-5" d="m23.38,29.05c.12,2.56-1.52,4.9-3.5,6.29,1.28-.12,3.03.35,3.96-.82-.35,1.17-1.4,1.98-2.33,2.56,1.4,0,2.8.12,3.96-.7-.35,1.17-1.4,1.63-2.45,1.98-.92.25-1.8.3-2.64.22-1.89-1.34-4.46-3.07-5.58-5.29l-.08-1.09c3.15,1.36,7.42.31,8.65-3.17Z"/>
  <path class="cls-2" d="m36.9,35.34c.7-1.17.58-2.33.47-3.61-.23,1.86-1.52,3.15-3.03,4.08.93-1.28,1.17-3.03.82-4.55-.23,1.75-1.52,3.03-2.68,4.08.58-1.28,1.05-2.8.47-4.2-.12,1.28-.93,2.33-1.75,3.26,2.02-3.54,1.06-8.38-2.34-10.52,2.57.27,5.71.44,8.44.59.41.53.75,1.11,1.01,1.78,1.05,2.91,1.17,6.99-1.4,9.09Z"/>
  <path class="cls-2" d="m47.04,47.58c.7-1.63.58-3.26.23-5.01,0-.47.12-1.75.93-1.17.77.7,1.24,1.75,1.29,2.82l-1,4.35-4.21.02c.07-.23.17-.45.31-.66.58-.82,1.75-1.17,2.45-.35Z"/>
  <path class="cls-4" d="m16.39,17.21s1.52,1.27.85,2.9c-.66,1.63-1.86,2.68-.85,3.73,1.01,1.05,3.61-1.3,4.08-1.93.47-.63.97-1.87-1.2-4.28l-2.88-.41Z"/>
</svg>