<?xml version="1.0" encoding="UTF-8"?>
<svg id="Layer_1" data-name="Layer 1" xmlns="http://www.w3.org/2000/svg" viewBox="0 0 64 64">
  <defs>
    <style>
      .cls-1 {
        fill: #b16328;
      }

      .cls-2 {
        fill: #79461c;
      }

      .cls-3 {
        fill: #8a897e;
      }

      .cls-4 {
        fill: #4b2d11;
      }

      .cls-5 {
        fill: #bfbbae;
      }
    </style>
  </defs>
  <path class="cls-3" d="m44.02,34.43c-.26,2.11,1.62,8.29,3.38,9.92l-1.43,8.26-3.51-.02s-.04-1.51,1.88-1.61c0,0,1.75-3.32-.26-7.6-2.01-4.28-3.61-5.68-4.13-8.4-.52-2.71-2.08-4.82-4.35-5.19,3.91-1.28,7.15-.86,8.41,4.63Z"/>
  <path class="cls-3" d="m21.87,33.52s-.78,1.73-.14,3.33c0,0-.46,5.15-.67,8.09-.21,2.94.41,5.89.41,5.89,0,0-1.33.91-1.5,3.38l-2.83.02s.14-1.58,1.59-1.67c0,0,.57-5.97.6-9.52s-2.56-11.98-2.56-11.98c0,0,.29-3.08,2.77-2.54,2.48.54,2.34,5,2.34,5Z"/>
  <path class="cls-2" d="m44.28,40.54c-.13-.13-.78.13-1.04-.26-.52-.91-.78-1.82-.65-2.73.18-2.41.23-4.83-.43-7.03.8.83,1.44,2.09,1.85,3.9-.26,2.11,1.62,8.29,3.38,9.92l-.12.71c-1.79-.48-1.42-3.52-2.99-4.52Z"/>
  <path class="cls-2" d="m13.16,14.09v-1.43s-.78-1.07-.91-2.14c-.13-1.07.29-2.14.45-2.17.16-.03,1.46,2.85,1.46,2.85l1.14,2.9h-2.14Z"/>
  <path class="cls-1" d="m13.13,14.34s1.08-1.81,1.1-2.37c.02-.56-.68-1.06-.71-1.66-.03-.6-.81-1.98-.81-1.98,0,0,.22-.02.56.81.34.83,1.39,2.4,1.78,2.63.39.23,1.46,1.14,1.46,1.14,0,0-1.59,1.62-3.38,1.43Z"/>
  <path class="cls-5" d="m15.33,13.2c1.03-.17,3.89,1.24,4.67,3.25.78,2.01,1.1,4.54,3.05,5.65s5.91,2.01,10.26,1.1c4.35-.91,7.92-1.36,7.92-1.36,0,0,5.52.78,7.59,5.32,0,0-.06,7.14-.32,9.41-.26,2.27,2.08,8.44,3.83,10.19l-1.43,8.89-3.51-.02s-.04-1.63,1.88-1.73c0,0,1.75-3.57-.26-8.18-2.01-4.61-4.8-6.3-5.32-9.22-.52-2.92-2.08-5.19-4.35-5.58-2.27-.39-4.02.39-7.2,2.86-3.18,2.47-6.95,3.57-11.1,1.88-4.15-1.69-4.09-8.83-4.09-8.83l-2.01-6.36s-1.95.97-2.66.58c0,0-1.69.97-2.92.26s-1.36-1.36-1.36-1.36c0,0,1.82-1.88,2.66-2.53s.84-1.34.58-1.77c0,0,.19-1.81,4.09-2.45Z"/>
  <path class="cls-5" d="m45.26,23.72s2.14,1.62,5.45,0c3.31-1.62,4.22-4.93,3.57-6.56s-1.95-1.79-2.73-1.51c-.78.28-1.1,2.27-.91,3.12.19.86,1.04,1.83,1.04,1.83,0,0-1.62-.84-1.82-2.92v1.09s-.78-1.61,0-2.84l-.65.45s.39-1.46,1.75-1.67h-.84s1.1-.57,2.21,0l-.65-.67s1.56-.34,2.47.93l.13-.97s1.43,1.86,1.3,3.74l.39-.58s.32,2.53-1.1,4.87l.71-.39s-1.43,4.35-8.18,4.22l-2.14-2.14Z"/>
  <path class="cls-2" d="m15.46,13.45s.72,1.3,1.3,1.9,1.69.17,1.64-.69c-.04-.87-2.29-5.69-2.29-5.69,0,0-.61,1.43-.65,2.07-.04.64.56,1.2,0,2.41Z"/>
  <path class="cls-1" d="m18.19,16.22s.78-1.25.82-1.73c.04-.48-2.38-5.45-2.9-5.52,0,0,1.2,2.67,1.45,3.87.25,1.2.37,2.21,0,2.55-.37.35-.8-.04-.8-.04,0,0,.78,1.08,1.43.87Z"/>
  <path class="cls-1" d="m13.91,18.34c-.26-.78-.78-1.04-1.56-.91.48-1.79,1.4-3.47,3.16-4.24,1.12,0,3.61,1.28,4.42,3.1-.31.58-1.02.36-1.62.36.65,2.21-1.3,3.76-3.51,3.76.02.05.03.09.01.12-.11.05-.28.13-.49.21-.19-.38-.56-.77-.56-1.11s.13-.91.13-1.3Z"/>
  <path class="cls-5" d="m10.66,17.43c.84-.65.84-1.34.58-1.77,0,0,.19-1.81,4.09-2.45.05,0,.11-.01.18-.01-1.77.76-2.69,2.44-3.16,4.24.78-.13,1.3.13,1.56.91,0,.39-.13.91-.13,1.3s.37.73.56,1.11c-.63.25-1.59.56-2.05.31,0,0-1.69.97-2.92.26s-1.36-1.36-1.36-1.36c0,0,1.82-1.88,2.66-2.53Z"/>
  <path class="cls-4" d="m13.08,16.47c0,.19.15.34.34.34s.34-.15.34-.34c0-.19-.15-.34-.34-.34s-.34.15-.34.34Z"/>
  <path class="cls-2" d="m9.75,19.8s-.43-.72-.99-.61l-.76.77s.29,1.1,1.36,1.36c0,0,.55-.94.39-1.53Z"/>
  <path class="cls-4" d="m8.5,20.25c.17-.05.85-.04.83.21-.02.26-.43.29-.43.29.07.13.32.39.48.55,0,.01-.01.02-.01.02-.13-.03-.25-.08-.35-.13-.43-.36-.64-.91-.51-.94Z"/>
  <path class="cls-2" d="m10.45,19.84s.04.09.09.09.09-.04.09-.09c0-.05-.04-.09-.09-.09s-.09.04-.09.09Z"/>
  <path class="cls-2" d="m10.16,19.61s.09-.03.1-.08c0-.05-.03-.09-.08-.1-.05,0-.09.03-.1.08s.03.09.08.1Z"/>
  <path class="cls-2" d="m10.71,19.45s.09-.03.1-.08-.03-.09-.08-.1c-.05,0-.09.03-.1.08,0,.05.03.09.08.1Z"/>
  <path class="cls-4" d="m12.28,21.06s.85-.7,1.14-.71c.29-.02.39.23.21.36-.18.13-.4-.07-.55,0-.15.07-.72.39-.72.39l-.08-.03Z"/>
  <path class="cls-1" d="m50.71,23.72c2.08-1.02,3.21-2.7,3.6-4.21.26-.19.48-.43.58-.79.13.39.39.78.26,1.17.54-.54.7-1.2.84-1.85-.02.94-.22,2.51-1.13,3.99l.71-.39s-1.43,4.35-8.18,4.22l-2.14-2.14s2.14,1.62,5.45,0Z"/>
  <path class="cls-5" d="m25.07,34.95s-.95,1.73-.17,3.33c0,0-.56,5.15-.82,8.09-.26,2.94.5,5.89.5,5.89,0,0-1.62.91-1.84,3.38l-3.46.02s.17-1.58,1.95-1.67c0,0,.69-5.97.74-9.52.04-3.55-3.55-12.38-3.55-12.38,0,0,.78-2.68,3.81-2.14s2.86,5,2.86,5Z"/>
  <path class="cls-1" d="m22.89,22c.05.04.11.07.17.1,1.95,1.1,5.91,2.01,10.26,1.1,2.89-.6,5.44-1.01,6.82-1.21,1.56.93,2.62,2.81,3.5,4.39.65-.39.52-1.69.26-2.34-.35-.78-.98-1.44-1.67-1.99,1.68.46,5.08,1.76,6.61,5.1,0,0-.06,7.14-.32,9.41-.18,1.62.95,5.21,2.25,7.78-1.97-1.23-2.46-4.48-3.22-6.55-.13-.26-.78-.26-.91-.52-1.69-1.69-.65-4.67-2.73-6.1-.52-.26,0,1.3-.78.78-.52-.39-1.17-.91-1.82-.52-.09.06-.16.13-.24.21-.51-.37-1.08-.62-1.71-.73-2.03-.35-3.64.24-6.22,2.12-2.15-.08-4.61,1.49-6.5,2.3-.15.05-.3.09-.46.12,0,0,0,0,0,0-1.21.67-2.21,1.05-1.87,2.33.35,1.28.19,4.28-1.04,4.17s-1.82-4.07-.95-6.32c.37-.97.32-2.44.13-3.8-.01-.04-.03-.09-.04-.13,0,0,0,0,0,0-.04-.11-.08-.22-.12-.33,0-.02-.02-.04-.02-.07-.04-.11-.08-.21-.12-.32,0-.01-.01-.03-.02-.04-.04-.1-.08-.21-.12-.31,0-.01-.01-.03-.02-.04-.06-.15-.12-.29-.18-.44,0-.02-.02-.05-.03-.07-.32-.78-.64-1.56-.85-2.41-.57-2.18.17-4.47,1.97-5.68Z"/>
</svg>