<?xml version="1.0" encoding="UTF-8"?>
<svg id="Layer_1" data-name="Layer 1" xmlns="http://www.w3.org/2000/svg" viewBox="0 0 64 64">
  <defs>
    <style>
      .cls-1 {
        fill: #4c3916;
      }

      .cls-2 {
        fill: #3a2d13;
      }

      .cls-3 {
        fill: #5f471b;
      }

      .cls-4 {
        fill: #020202;
      }

      .cls-5 {
        fill: #110e10;
      }

      .cls-6 {
        fill: #d4d3d6;
      }

      .cls-7 {
        fill: #1e1b1c;
      }

      .cls-8 {
        fill: #eeecec;
      }
    </style>
  </defs>
  <path class="cls-2" d="m17.06,9.01s.19-.98,1.68-.66c1.49.32,2.62,3.56,2.62,3.56l-1.43.87-2.88-3.77Z"/>
  <path class="cls-2" d="m14.4,9.01s-.19-.98-1.68-.66c-1.49.32-2.62,3.56-2.62,3.56l1.43.87,2.88-3.77Z"/>
  <path class="cls-6" d="m45.23,30.4v9.57s1.48,4.42,3.39,5.15l-.92,9.48h-4.67s.65-1.72,2.11-1.72c0,0,1.93-5.31-1.69-8.91-3.62-3.6-9.66-10.26-9.66-10.26l11.43-3.32Z"/>
  <path class="cls-6" d="m13.93,27.55s-.81,7.53,2.5,10.49c0,0,1.14,3.16.71,8.45-.42,5.28-.72,7.41-.72,7.41,0,0-2.17-.25-2.6,2.1h4.59s1.29-9.16,2.13-14.32c.84-5.16.22-15.69-3.23-16.37s-3.39,2.24-3.39,2.24Z"/>
  <path class="cls-8" d="m19.79,11.44s2.15,6.5,3.82,7.59c1.67,1.1,20.08,2.1,20.08,2.1,0,0,4.64,3.2,8.39,7.78v10.71s1.48,4.94,3.39,5.76l-.92,10.61h-4.67s.65-1.92,2.11-1.92c0,0,1.93-5.95-1.69-9.97-3.62-4.03-8.56-10.39-8.56-10.39,0,0-13.68,2.42-18.14,4.07-4.46,1.65-9.77-3.57-9.77-12.08s5.95-14.27,5.95-14.27Z"/>
  <path class="cls-8" d="m47.33,24.89s2.55-3.39,2.55-9.15c0-1.89-.62-3.52-1.45-4.87-.63-1.01-2.17-.32-1.84.82.43,1.44.66,3.04.4,4.6-.77,4.67-4.97,4.75-4.97,4.75l5.3,3.85Z"/>
  <path class="cls-2" d="m42.04,21.04s3.6-.08,4.75-3.8c.21.03.73-.54,1.42,0,1.73,1.35.77,3.12.32,5.45-.61,1.43-1.18,2.2-1.18,2.2l-5.3-3.85Z"/>
  <path class="cls-8" d="m15.95,28.43s1.46,6.64,5.23,9.6c0,0,1.29,3.16.81,8.45-.48,5.28-.82,7.41-.82,7.41,0,0-2.47-.25-2.95,2.1h5.22s2.2-9.02,3.16-14.18c.96-5.16-1.72-15.72-5.63-16.4-3.91-.69-5.01,3.02-5.01,3.02Z"/>
  <path class="cls-1" d="m39.14,20.95c-.05-.03-.1-.07-.15-.11,2.72.18,4.7.29,4.7.29,0,0,3.47,2.39,6.83,6-2.5,1.39-6.17,2.4-6.99-.55-.82-2.61-2.2-3.98-4.39-5.63Z"/>
  <path class="cls-1" d="m41.34,25.07c1.24,1.24,1.65,3.02,1.24,4.8-.55,3.16-4.25,1.92-6.45,1.24-3.16-.96-5.63,1.78-7.96,3.57-.82.55-1.65,1.1-2.61.96-1.92-.27-3.16-1.78-3.43-3.71-.27-2.33,1.24-3.84,2.61-5.49.14-.27.27-.82.14-1.1-.14-2.06-2.06-3.71-1.24-5.9.05-.11.1-.22.15-.32,1.21.52,6.02,1.02,10.61,1.39.02.21.1.41.23.59,1.51,2.47,4.67,2.2,6.73,3.98Z"/>
  <path class="cls-2" d="m26.11,40.03c-.41-1.1-.27-2.33-.69-3.43-.14-.27-.55-.69-.82-.82-1.51-.55-2.88-1.37-3.43-3.02-.64-2.17.62-4.22,2.01-5.82,2.43,3,3.93,9.65,3.54,13.89-.27-.19-.49-.45-.61-.8Z"/>
  <path class="cls-3" d="m15.95,9.01c2.06,0,3.99.7,4.47,4.16.47,3.46-2.82,9.64-5.02,10.05-2.2.41-3.02-2.95-3.02-2.95v-4.13s-.82-1.56-.82-3.55,1.24-3.57,4.39-3.57Z"/>
  <path class="cls-5" d="m18.02,14.12c0,.24.2.44.44.44s.44-.2.44-.44-.2-.44-.44-.44-.44.2-.44.44Z"/>
  <path class="cls-5" d="m12.37,14.12c0,.24.2.44.44.44s.44-.2.44-.44-.2-.44-.44-.44-.44.2-.44.44Z"/>
  <path class="cls-2" d="m13.25,12.44c1.34,0,1.03,2.67.61,4.56-.41,1.89,1.4,3.84,1.4,3.84,0,0,1.72-1.95,1.3-3.84-.41-1.89-.55-4.9.79-4.77,2.3.23,2.3,1.88,2.3,1.88-.74-.59-1.57-1.02-2.75-.99,0,0-.32.07-.07,1.43.23,1.23,1.69,3.17,2.41,4.07-1.06,2.34-2.63,4.36-3.85,4.59-2.2.41-3.02-2.95-3.02-2.95v-3.25c.56-.83,1.08-1.75,1.21-2.45.25-1.36-.07-1.43-.07-1.43-.75-.02-1.36.15-1.9.43-.03-.26.42-1.12,1.63-1.12Z"/>
  <path class="cls-4" d="m15.35,21.85s1.11-.91,1.19-1.25c.09-.34-.3-.74-1.37-.77-1.07-.03-1.42.31-1.53.68-.11.37,1.06,1.33,1.06,1.33h.65Z"/>
  <path class="cls-7" d="m15.35,20.52c.09-.26.82-.26.82,0,0,.26-.43.33-.43.33l-.14.79c-.15.13-.26.22-.26.22h-.02c-.02-.41-.05-1.15.02-1.33Z"/>
  <path class="cls-7" d="m14.01,20.52c0-.26.74-.26.82,0,.06.18.04.92.02,1.33h-.15s-.04-.03-.1-.09l-.16-.92s-.43-.07-.43-.33Z"/>
  <path class="cls-3" d="m16.87,9.33l.19-1.33h5.34s.52.58.55,2.07c.03,1.49-1.95,2.72-1.95,2.72,0,0-2.19-4.42-2.97-4.49s-.59,1.2-.59,1.2l-.56-.17Z"/>
  <path class="cls-3" d="m14.6,9.33l-.19-1.33h-5.34s-.52.58-.55,2.07c-.03,1.49,2.04,2.72,2.04,2.72,0,0,2.1-4.42,2.88-4.49.78-.06.59,1.2.59,1.2l.56-.17Z"/>
</svg>